<svg width="562" height="397" viewBox="0 0 562 397" fill="none" xmlns="http://www.w3.org/2000/svg">
<path d="M305.713 40.5579L267.666 62.67L229.619 84.7821L191.572 106.894L153.525 129.006L115.477 151.118L77.4297 173.23" stroke="#D2DBFC" stroke-width="2.27302" stroke-linecap="round" stroke-linejoin="round"/>
<path d="M92.9616 194.834L54.9142 216.946L16.6201 194.834L54.6674 172.721L92.9616 194.834Z" stroke="#D2DBFC" stroke-width="2.27302" stroke-linecap="round" stroke-linejoin="round"/>
<path d="M87.7653 367.1L49.7179 389.211L11.4238 367.1L49.4711 344.987L87.7653 367.1Z" stroke="#D2DBFC" stroke-width="2.27302" stroke-linecap="round" stroke-linejoin="round"/>
<path d="M369.309 328.029L331.262 350.141L292.968 328.029L331.015 305.917L369.309 328.029Z" stroke="#D2DBFC" stroke-width="2.27302" stroke-linecap="round" stroke-linejoin="round"/>
<path d="M560.404 219.415L522.357 241.526L484.062 219.415L522.11 197.302L560.404 219.415Z" stroke="#D2DBFC" stroke-width="2.27302" stroke-linecap="round" stroke-linejoin="round"/>
<path d="M39.6292 239.581L77.6764 217.454L115.724 195.343L153.771 173.23L191.819 151.118L229.866 129.006L267.913 106.894L305.96 84.7821L344.007 62.67" stroke="#D2DBFC" stroke-width="2.27302" stroke-linecap="round" stroke-linejoin="round"/>
<path d="M77.9233 261.693L115.971 239.566L154.018 217.454L192.065 195.343L230.112 173.23L268.16 151.118L306.207 129.006L344.254 106.894L382.302 84.782" stroke="#D2DBFC" stroke-width="2.27302" stroke-linecap="round" stroke-linejoin="round"/>
<path d="M116.231 283.805L154.279 261.693L192.326 239.581L230.374 217.469L268.421 195.343L306.468 173.23L344.516 151.118L382.563 129.006L420.595 106.894" stroke="#D2DBFC" stroke-width="2.27302" stroke-linecap="round" stroke-linejoin="round"/>
<path d="M154.525 305.916L192.573 283.805L230.62 261.693L268.667 239.581L306.714 217.454L344.762 195.343L382.81 173.23L420.857 151.118L458.889 129.006" stroke="#D2DBFC" stroke-width="2.27302" stroke-linecap="round" stroke-linejoin="round"/>
<path d="M192.821 328.029L230.868 305.916L268.915 283.805L306.963 261.693L345.011 239.566L383.058 217.454L421.105 195.343L459.138 173.23L497.185 151.118" stroke="#D2DBFC" stroke-width="2.27302" stroke-linecap="round" stroke-linejoin="round"/>
<path d="M231.115 350.14L269.162 328.029L307.209 305.916L345.256 283.805L383.304 261.678L421.352 239.566L459.399 217.454L497.432 195.342" stroke="#D2DBFC" stroke-width="2.27302" stroke-linecap="round" stroke-linejoin="round"/>
<path d="M497.693 239.566H497.678L459.646 261.678H459.631M459.631 261.678L421.597 283.805L383.55 305.916M459.631 261.678L421.584 283.79M231.361 394.365L307.441 350.14H307.456" stroke="#D2DBFC" stroke-width="2.27302" stroke-linecap="round" stroke-linejoin="round"/>
<path d="M497.184 151.118L458.89 129.006L420.596 106.894L382.301 84.7821L344.007 62.67L305.713 40.5579" stroke="#D2DBFC" stroke-width="2.27302" stroke-linecap="round" stroke-linejoin="round"/>
<path d="M305.713 40.5579L344.007 62.67L382.301 84.7821L420.596 106.894L458.89 129.006L497.184 151.118" stroke="#D2DBFC" stroke-width="2.27302" stroke-linecap="round" stroke-linejoin="round"/>
<path d="M459.136 173.23L420.857 151.118L382.563 129.006L344.254 106.894L305.96 84.7821L267.666 62.67" stroke="#D2DBFC" stroke-width="2.27302" stroke-linecap="round" stroke-linejoin="round"/>
<path d="M267.666 62.67L305.96 84.7821L344.254 106.894L382.563 129.006L420.857 151.118L459.136 173.23L497.431 195.343" stroke="#D2DBFC" stroke-width="2.27302" stroke-linecap="round" stroke-linejoin="round"/>
<path d="M229.619 84.782L267.913 106.894L306.207 129.006L344.516 151.118L382.81 173.23L421.104 195.343L459.398 217.454" stroke="#D2DBFC" stroke-width="2.27302" stroke-linecap="round" stroke-linejoin="round"/>
<path d="M497.678 239.566L459.398 217.454L421.104 195.343L382.81 173.23L344.516 151.118L306.207 129.006L267.913 106.894L229.619 84.782" stroke="#D2DBFC" stroke-width="2.27302" stroke-linecap="round" stroke-linejoin="round"/>
<path d="M459.63 261.678L421.351 239.566L383.057 217.454L344.763 195.343L306.469 173.23L268.16 151.118L229.866 129.006L191.572 106.894" stroke="#D2DBFC" stroke-width="2.27302" stroke-linecap="round" stroke-linejoin="round"/>
<path d="M421.583 283.79L383.303 261.678L345.009 239.566L306.715 217.454L268.421 195.343L230.113 173.23L191.818 151.118L153.524 129.006" stroke="#D2DBFC" stroke-width="2.27302" stroke-linecap="round" stroke-linejoin="round"/>
<path d="M115.478 151.118L153.772 173.23L192.066 195.343L230.374 217.469L268.668 239.581L306.962 261.693L345.257 283.805" stroke="#D2DBFC" stroke-width="2.27302" stroke-linecap="round" stroke-linejoin="round"/>
<path d="M383.536 305.916L345.256 283.805L306.962 261.693L268.668 239.581L230.374 217.469L192.066 195.343L153.772 173.23L115.478 151.118" stroke="#D2DBFC" stroke-width="2.27302" stroke-linecap="round" stroke-linejoin="round"/>
<path d="M77.4297 173.23L115.724 195.343L154.018 217.454L192.326 239.581L230.621 261.693L268.915 283.805" stroke="#D2DBFC" stroke-width="2.27302" stroke-linecap="round" stroke-linejoin="round"/>
<path d="M307.209 305.916L268.915 283.805L230.621 261.693L192.326 239.581L154.018 217.454L115.724 195.343L77.4297 173.23" stroke="#D2DBFC" stroke-width="2.27302" stroke-linecap="round" stroke-linejoin="round"/>
<path d="M77.6768 217.454L115.971 239.566L154.28 261.693L192.574 283.805L230.868 305.916L269.162 328.029" stroke="#D2DBFC" stroke-width="2.27302" stroke-linecap="round" stroke-linejoin="round"/>
<path d="M307.441 350.141L269.162 328.029L230.868 305.916L192.574 283.805L154.28 261.693L115.971 239.566L77.6768 217.454" stroke="#D2DBFC" stroke-width="2.27302" stroke-linecap="round" stroke-linejoin="round"/>
<path d="M269.394 372.253L231.114 350.141L192.82 328.029L154.526 305.917L116.232 283.805L77.9233 261.693L39.6292 239.581" stroke="#D2DBFC" stroke-width="2.27302" stroke-linecap="round" stroke-linejoin="round"/>
<path d="M497.692 239.566H497.678" stroke="#D2DBFC" stroke-width="2.27302" stroke-linecap="round" stroke-linejoin="round"/>
<path d="M459.645 261.678H459.631" stroke="#D2DBFC" stroke-width="2.27302" stroke-linecap="round" stroke-linejoin="round"/>
<path d="M421.598 283.804L421.584 283.79" stroke="#D2DBFC" stroke-width="2.27302" stroke-linecap="round" stroke-linejoin="round"/>
<path d="M383.55 305.917H383.536" stroke="#D2DBFC" stroke-width="2.27302" stroke-linecap="round" stroke-linejoin="round"/>
<path d="M307.455 350.141H307.441" stroke="#D2DBFC" stroke-width="2.27302" stroke-linecap="round" stroke-linejoin="round"/>
<path d="M39.6295 239.581L1.59668 261.693" stroke="#D2DBFC" stroke-width="2.27302" stroke-linecap="round" stroke-linejoin="round"/>
<path d="M1.82861 305.917L39.8904 283.805L77.9233 261.693" stroke="#D2DBFC" stroke-width="2.27302" stroke-linecap="round" stroke-linejoin="round"/>
<path d="M40.1375 328.029L78.1848 305.917L116.233 283.805" stroke="#D2DBFC" stroke-width="2.27302" stroke-linecap="round" stroke-linejoin="round"/>
<path d="M116.725 372.253L154.772 350.141L192.82 328.029" stroke="#D2DBFC" stroke-width="2.27302" stroke-linecap="round" stroke-linejoin="round"/>
<path d="M116.725 372.253L155.019 394.38L193.066 372.253L231.114 350.141" stroke="#D2DBFC" stroke-width="2.27302" stroke-linecap="round" stroke-linejoin="round"/>
<path d="M1.59668 261.693L39.8908 283.805L78.1848 305.917L116.478 328.029L154.773 350.141L193.067 372.253" stroke="#D2DBFC" stroke-width="2.27302" stroke-linecap="round" stroke-linejoin="round"/>
<path d="M231.362 394.365L193.068 372.253L154.773 350.141L116.478 328.029L78.1848 305.917L39.8908 283.805L1.59668 261.693" stroke="#D2DBFC" stroke-width="2.27302" stroke-linecap="round" stroke-linejoin="round"/>
<path d="M116.725 372.253L78.4313 350.141L40.1373 328.029L1.82861 305.916" stroke="#D2DBFC" stroke-width="2.27302" stroke-linecap="round" stroke-linejoin="round"/>
<path d="M1.82861 305.916L40.1373 328.029L78.4313 350.141L116.725 372.253L155.019 394.38L193.067 372.253" stroke="#D2DBFC" stroke-width="2.27302" stroke-linecap="round" stroke-linejoin="round"/>
<path d="M348.217 238.899L252.496 294.171L156.79 238.899C158.053 236.736 159.853 234.892 162.103 233.585L245.252 185.572C249.739 182.987 255.269 182.987 259.769 185.572L342.904 233.585C345.154 234.892 346.968 236.736 348.217 238.899Z" fill="#012A7A" stroke="#012A7A" stroke-width="2.27302" stroke-linecap="round" stroke-linejoin="round"/>
<path d="M349.509 37.727L266.374 85.7404C261.889 88.3393 259.116 93.1304 259.116 98.3139V194.326C259.116 199.51 261.889 204.3 266.374 206.9L349.509 254.913C353.995 257.512 359.541 257.512 364.026 254.913L447.161 206.9C451.646 204.3 454.419 199.51 454.419 194.326V98.2992C454.419 93.1159 451.646 88.3248 447.161 85.7259L364.026 37.727C359.541 35.1281 353.995 35.1281 349.509 37.727Z" fill="url(#paint0_linear_12_354)" stroke="#012A7A" stroke-width="2.27302" stroke-miterlimit="10"/>
<mask id="mask0_12_354" style="mask-type:luminance" maskUnits="userSpaceOnUse" x="371" y="112" width="74" height="125">
<path d="M371.966 236.619L371.734 153.775L443.807 112.15L444.054 195.008L371.966 236.619Z" fill="white"/>
</mask>
<g mask="url(#mask0_12_354)">
<path d="M442.37 112.992L373.171 152.948C372.373 153.413 371.734 154.515 371.734 155.445L371.792 176.976C371.792 177.89 372.431 178.254 373.23 177.804L384.77 171.139C385.568 170.675 386.207 171.052 386.207 171.967L386.294 201.789C386.294 202.703 385.655 203.807 384.857 204.272L373.316 210.935C372.518 211.4 371.879 212.504 371.879 213.432L371.937 234.964C371.937 235.879 372.576 236.256 373.374 235.792L442.574 195.836C443.372 195.371 444.011 194.268 444.011 193.339L443.953 171.807C443.953 170.892 443.314 170.515 442.516 170.98L430.975 177.644C430.192 178.094 429.538 177.745 429.538 176.816L429.451 146.995C429.451 146.08 430.09 144.962 430.888 144.497L442.429 137.833C443.227 137.369 443.866 136.265 443.866 135.351L443.807 113.819C443.807 112.905 443.169 112.527 442.37 112.992Z" fill="white"/>
</g>
<path d="M356.768 156.984V156.998V248.35" stroke="#012A7A" stroke-width="2.27302" stroke-linecap="round" stroke-linejoin="round"/>
<path d="M366.014 140.969H366.029V140.955L445.128 95.279" stroke="#012A7A" stroke-width="2.27302" stroke-linecap="round" stroke-linejoin="round"/>
<path d="M347.491 140.955L268.391 95.279" stroke="#012A7A" stroke-width="2.27302" stroke-linecap="round" stroke-linejoin="round"/>
<path d="M356.768 154.69V256.843C354.256 256.843 351.745 256.205 349.509 254.898L266.374 206.885C261.874 204.3 259.116 199.495 259.116 194.311V98.2991C259.116 95.7002 259.798 93.203 261.062 91.0397L349.509 142.116C353.995 144.716 356.768 149.506 356.768 154.69Z" fill="#012A7A" stroke="#012A7A" stroke-width="2.27302" stroke-linecap="round" stroke-linejoin="round"/>
<path d="M249.912 35.6652L166.777 83.6787C162.291 86.2775 159.519 91.0688 159.519 96.2519V192.265C159.519 197.447 162.291 202.239 166.777 204.837L249.912 252.851C254.398 255.449 259.942 255.449 264.429 252.851L347.564 204.837C352.049 202.239 354.822 197.447 354.822 192.265V96.2519C354.822 91.0688 352.049 86.2775 347.564 83.6787L264.429 35.6652C259.942 33.0664 254.398 33.0664 249.912 35.6652Z" fill="#FF6C37" stroke="#012A7A" stroke-width="2.27302" stroke-miterlimit="10"/>
<mask id="mask1_12_354" style="mask-type:luminance" maskUnits="userSpaceOnUse" x="272" y="110" width="73" height="125">
<path d="M272.37 234.571L272.138 151.728L344.226 110.102L344.458 192.946L272.37 234.571Z" fill="white"/>
</mask>
<g mask="url(#mask1_12_354)">
<path d="M306.135 173.593C305.337 174.058 304.683 173.68 304.683 172.766L304.625 151.233C304.625 150.319 305.264 149.201 306.063 148.737L310.388 146.239C311.187 145.774 311.84 146.152 311.84 147.067L311.898 168.599C311.898 169.513 311.259 170.631 310.461 171.095L306.135 173.593ZM342.774 110.93L273.575 150.885C272.777 151.35 272.138 152.454 272.138 153.368L272.37 232.902C272.37 233.816 273.024 234.194 273.822 233.729L303.377 216.655C304.161 216.205 304.814 215.087 304.814 214.158L304.756 192.626C304.756 191.712 305.394 190.594 306.193 190.13L342.949 168.903C343.747 168.439 344.386 167.335 344.386 166.42L344.226 111.729C344.226 110.814 343.572 110.45 342.774 110.915" fill="white"/>
</g>
<path d="M257.17 154.937V246.303" stroke="#012A7A" stroke-width="2.27302" stroke-linecap="round" stroke-linejoin="round"/>
<path d="M266.418 138.908H266.433V138.893L332.859 100.535" stroke="#012A7A" stroke-width="2.27302" stroke-linecap="round" stroke-linejoin="round"/>
<path d="M247.894 138.908L168.78 93.2175" stroke="#012A7A" stroke-width="2.27302" stroke-linecap="round" stroke-linejoin="round"/>
<path d="M257.157 152.643V254.797C254.645 254.797 252.134 254.157 249.899 252.851L166.764 204.837C162.263 202.253 159.505 197.447 159.505 192.265V96.2519C159.505 93.6531 160.187 91.1559 161.45 88.9926L249.899 140.069C254.384 142.668 257.157 147.46 257.157 152.643Z" fill="#012A7A" stroke="#012A7A" stroke-width="2.27302" stroke-linecap="round" stroke-linejoin="round"/>
<path d="M326.719 84.3609L263.602 47.9189" stroke="white" stroke-width="4.54604" stroke-linecap="round" stroke-linejoin="round"/>
<path d="M343.804 101.667C343.804 97.065 341.351 92.8257 337.388 90.5317L335.733 89.5734" stroke="white" stroke-width="4.54604" stroke-linecap="round" stroke-linejoin="round"/>
<path d="M149.968 153.02L66.8329 201.034C62.3473 203.633 59.5747 208.424 59.5747 213.607V309.619C59.5747 314.802 62.3473 319.594 66.8329 322.192L149.968 370.206C154.453 372.805 159.999 372.805 164.484 370.206L247.62 322.192C252.105 319.594 254.878 314.802 254.878 309.619V213.607C254.878 208.424 252.105 203.633 247.62 201.034L164.484 153.02C159.999 150.421 154.453 150.421 149.968 153.02Z" fill="url(#paint1_linear_12_354)" stroke="#012A7A" stroke-width="2.27302" stroke-miterlimit="10"/>
<mask id="mask2_12_354" style="mask-type:luminance" maskUnits="userSpaceOnUse" x="172" y="227" width="73" height="125">
<path d="M172.438 351.926L172.191 269.083L244.28 227.457L244.512 310.301L172.438 351.926Z" fill="white"/>
</mask>
<g mask="url(#mask2_12_354)">
<path d="M206.189 290.947C205.39 291.412 204.751 291.034 204.751 290.12L204.694 268.589C204.694 267.674 205.333 266.57 206.131 266.106L210.456 263.609C211.255 263.144 211.893 263.507 211.893 264.436L211.952 285.967C211.952 286.882 211.313 288 210.515 288.465L206.189 290.962M242.842 228.285L173.643 268.241C172.845 268.704 172.206 269.808 172.206 270.737L172.438 350.257C172.438 351.171 173.077 351.549 173.875 351.084L203.43 334.01C204.229 333.546 204.867 332.427 204.867 331.513L204.81 309.982C204.81 309.067 205.449 307.948 206.247 307.484L210.572 304.987C211.371 304.523 212.01 304.9 212.01 305.814L212.068 327.346C212.068 328.26 212.721 328.639 213.52 328.174L243.075 311.099C243.873 310.635 244.512 309.532 244.512 308.602L244.28 229.083C244.28 228.168 243.641 227.791 242.842 228.255" fill="white"/>
</g>
<path d="M157.241 272.292V272.307V363.658" stroke="#012A7A" stroke-width="2.27302" stroke-linecap="round" stroke-linejoin="round"/>
<path d="M166.489 256.263H166.503L245.588 210.587" stroke="#012A7A" stroke-width="2.27302" stroke-linecap="round" stroke-linejoin="round"/>
<path d="M147.964 256.263L68.8501 210.573" stroke="#012A7A" stroke-width="2.27302" stroke-linecap="round" stroke-linejoin="round"/>
<path d="M157.226 269.997V372.152C154.715 372.152 152.203 371.513 149.968 370.206L66.8329 322.192C62.3328 319.609 59.5747 314.802 59.5747 309.619V213.607C59.5747 211.008 60.257 208.51 61.52 206.348L149.968 257.425C154.453 260.023 157.226 264.815 157.226 269.997Z" fill="#012A7A" stroke="#012A7A" stroke-width="2.27302" stroke-linecap="round" stroke-linejoin="round"/>
<path d="M231.477 112.295L235.948 124.389L248.041 128.861L235.948 133.348L231.477 145.441L227.007 133.348L214.899 128.861L227.007 124.389L231.477 112.295Z" fill="white"/>
<path d="M252.047 99.4029L254.137 105.05L259.799 107.156L254.137 109.247L252.047 114.908L249.943 109.247L244.281 107.156L249.943 105.05L252.047 99.4029Z" fill="white"/>
<defs>
<linearGradient id="paint0_linear_12_354" x1="259.116" y1="146.313" x2="454.419" y2="146.313" gradientUnits="userSpaceOnUse">
<stop stop-color="#E873FF"/>
<stop offset="1" stop-color="#5B2AE1"/>
</linearGradient>
<linearGradient id="paint1_linear_12_354" x1="59.5747" y1="261.62" x2="254.892" y2="261.62" gradientUnits="userSpaceOnUse">
<stop stop-color="#E873FF"/>
<stop offset="1" stop-color="#5B2AE1"/>
</linearGradient>
</defs>
</svg>
