<svg width="560" height="420" viewBox="0 0 560 420" fill="none" xmlns="http://www.w3.org/2000/svg">
<path d="M521.16 374.8H25.98" stroke="#3A3836" stroke-width="2" stroke-linecap="round" stroke-linejoin="round"/>
<g style="mix-blend-mode:multiply">
<path d="M276.14 396.57H417.47C420.355 396.536 423.108 395.358 425.125 393.296C427.143 391.233 428.259 388.455 428.23 385.57C428.246 384.141 427.98 382.723 427.448 381.397C426.916 380.071 426.128 378.863 425.128 377.841C424.129 376.82 422.939 376.005 421.625 375.444C420.311 374.883 418.899 374.586 417.47 374.57H276.14C274.711 374.586 273.3 374.883 271.986 375.444C270.671 376.005 269.481 376.82 268.482 377.841C267.483 378.863 266.694 380.071 266.162 381.397C265.63 382.723 265.364 384.141 265.38 385.57C265.351 388.455 266.467 391.233 268.485 393.296C270.502 395.358 273.255 396.536 276.14 396.57Z" fill="#E5E5E5"/>
</g>
<path d="M260.72 264.29L261.18 254.18C261.18 254.18 225.77 258.41 195.7 238.79L188.9 230.66V219.77L204 211L221.33 215.09C221.33 215.09 237.56 221.64 259.63 211.88C259.63 211.88 226.84 189 243.47 150.06C243.47 150.06 254.47 114.53 301.95 122.06C301.95 122.06 344.28 129.5 339.04 181.26L333.46 195.73L351.69 194.56C351.69 194.56 357.78 194.17 361.51 215.56C365.24 236.95 367.51 264.28 367.51 264.28C367.51 264.28 373.76 278.72 350.82 279.87L371.69 371.64C371.69 371.64 373.6 388.8 365.88 390.03C365.88 390.03 362.24 402.85 343.54 394.26C343.54 394.26 331.19 387.15 328.1 365.13L318.64 328.9L306.48 325.9H299.78L297.88 331.28L293.38 378.08C293.38 378.08 290.38 397.52 271.38 395.85C271.38 395.85 255.8 397.5 255.11 368.3L260.28 289.85" fill="white"/>
<path d="M305.42 219.06C305.42 219.06 284.6 232.88 262.68 225.65L264.32 215.53C264.32 215.53 284.78 226.3 305.42 219.06Z" fill="#E5E5E5"/>
<path d="M289.44 221.63C317.369 221.63 340.01 198.989 340.01 171.06C340.01 143.131 317.369 120.49 289.44 120.49C261.511 120.49 238.87 143.131 238.87 171.06C238.87 198.989 261.511 221.63 289.44 221.63Z" stroke="#3A3836" stroke-width="2" stroke-linecap="round" stroke-linejoin="round"/>
<path d="M261.18 250.19L255 372.92C255 384.34 262 396.04 273.4 395.92C284.68 395.78 292.25 387.78 293.75 375.34L298 328.92C298.054 327.896 298.499 326.932 299.243 326.226C299.988 325.521 300.975 325.129 302 325.13C304.11 325.13 316.36 324.62 318.58 328.87L333.93 384.51C335.4 388.015 337.873 391.008 341.038 393.113C344.203 395.217 347.919 396.34 351.72 396.34C354.533 396.338 357.311 395.721 359.86 394.532C362.409 393.344 364.667 391.613 366.477 389.46C368.287 387.307 369.605 384.785 370.337 382.069C371.07 379.354 371.201 376.511 370.72 373.74L352.6 270.8" stroke="#3A3836" stroke-width="2" stroke-linecap="round" stroke-linejoin="round"/>
<path d="M259.5 212.07C257.887 213.142 256.142 214.002 254.31 214.63C246.94 217.34 231.63 220.1 207.77 210.87C205.951 210.183 204.013 209.87 202.07 209.948C200.127 210.026 198.22 210.494 196.462 211.324C194.704 212.155 193.132 213.33 191.838 214.781C190.543 216.232 189.555 217.929 188.93 219.77C187.643 223.227 187.616 227.028 188.854 230.503C190.093 233.978 192.517 236.905 195.7 238.77C206.61 244.86 229.57 257.21 261.18 254.16" stroke="#3A3836" stroke-width="2" stroke-linecap="round" stroke-linejoin="round"/>
<path d="M264.32 215.53C264.32 215.53 259.32 229.97 261.09 250.19" stroke="#3A3836" stroke-width="2" stroke-linecap="round" stroke-linejoin="round"/>
<path d="M261.18 250.19C261.18 250.19 249.9 233.01 254.63 215.19" stroke="#3A3836" stroke-width="2" stroke-linecap="round" stroke-linejoin="round"/>
<path d="M358.81 279.3C357.704 279.47 356.588 279.56 355.47 279.57" stroke="#3A3836" stroke-width="2" stroke-linecap="round" stroke-linejoin="round"/>
<path d="M432.25 290.52L359 332.83C358.358 333.205 357.593 333.311 356.873 333.124C356.153 332.936 355.537 332.471 355.16 331.83L326.5 282.2C326.124 281.556 326.018 280.79 326.205 280.069C326.393 279.347 326.858 278.729 327.5 278.35L376.2 250.24C377.55 249.46 351.91 270.04 378.28 253.55L433.28 286.7C433.646 287.344 433.744 288.107 433.551 288.822C433.358 289.537 432.89 290.148 432.25 290.52Z" fill="#E5E5E5"/>
<path d="M406.651 238.039L333.351 280.359C332.007 281.135 331.546 282.854 332.322 284.198L360.982 333.838C361.758 335.182 363.477 335.643 364.821 334.867L438.121 292.547C439.465 291.771 439.925 290.052 439.149 288.708L410.489 239.068C409.713 237.724 407.995 237.263 406.651 238.039Z" fill="white" stroke="#3A3836" stroke-width="2" stroke-linecap="round" stroke-linejoin="round"/>
<path d="M387.62 295.1C392.397 295.1 396.27 291.227 396.27 286.45C396.27 281.673 392.397 277.8 387.62 277.8C382.842 277.8 378.97 281.673 378.97 286.45C378.97 291.227 382.842 295.1 387.62 295.1Z" fill="url(#paint0_linear_23_591)"/>
<path d="M387.62 295.1C392.397 295.1 396.27 291.227 396.27 286.45C396.27 281.673 392.397 277.8 387.62 277.8C382.842 277.8 378.97 281.673 378.97 286.45C378.97 291.227 382.842 295.1 387.62 295.1Z" stroke="#3A3836" stroke-width="2" stroke-linecap="round" stroke-linejoin="round"/>
<g style="mix-blend-mode:multiply">
<path d="M349 272.3C349 272.3 356.66 293.89 373 290.04C373 290.04 363.43 289.37 351.86 270.41L349 272.3Z" fill="#E5E5E5"/>
</g>
<path d="M363.63 226.68C362.02 217.13 360.17 209.22 357.97 203.39C353.69 192.03 348.72 193.27 341.92 194.39L333.41 195.73C344.52 204.35 354.93 216.34 363.92 228.44C372.581 240.332 380.593 252.683 387.92 265.44C389.938 268.858 390.606 272.906 389.794 276.791C388.982 280.675 386.748 284.117 383.53 286.44C380.166 288.88 375.981 289.907 371.87 289.302C367.759 288.696 364.048 286.506 361.53 283.2L333.33 244.6C331.566 242.199 330.525 239.343 330.33 236.37C330.33 236.37 327.61 212.37 340.92 203.64" fill="white"/>
<path d="M363.63 226.68C362.02 217.13 360.17 209.22 357.97 203.39C353.69 192.03 348.72 193.27 341.92 194.39L333.41 195.73C344.52 204.35 354.93 216.34 363.92 228.44C372.581 240.332 380.593 252.683 387.92 265.44C389.938 268.858 390.606 272.906 389.794 276.791C388.982 280.675 386.748 284.117 383.53 286.44C380.166 288.88 375.981 289.907 371.87 289.302C367.759 288.696 364.048 286.506 361.53 283.2L333.33 244.6C331.566 242.199 330.525 239.343 330.33 236.37C330.33 236.37 327.61 212.37 340.92 203.64" stroke="#3A3836" stroke-width="2" stroke-linecap="round" stroke-linejoin="round"/>
<g opacity="0.7">
<path opacity="0.7" d="M307.42 115.05C306.088 115.544 304.64 115.631 303.258 115.301C301.876 114.972 300.624 114.24 299.658 113.198C298.693 112.156 298.058 110.851 297.834 109.448C297.611 108.046 297.808 106.608 298.401 105.318C298.995 104.027 299.958 102.942 301.168 102.199C302.379 101.455 303.783 101.088 305.202 101.143C306.621 101.198 307.992 101.672 309.142 102.507C310.292 103.341 311.168 104.498 311.66 105.83C312.319 107.615 312.243 109.589 311.448 111.317C310.653 113.046 309.204 114.389 307.42 115.05Z" fill="#FF6C37"/>
</g>
<path d="M307.42 115.05C306.088 115.544 304.64 115.631 303.258 115.301C301.876 114.972 300.624 114.24 299.658 113.198C298.693 112.156 298.058 110.851 297.834 109.448C297.611 108.046 297.808 106.608 298.401 105.318C298.995 104.027 299.958 102.942 301.168 102.199C302.379 101.455 303.783 101.088 305.202 101.143C306.621 101.198 307.992 101.672 309.142 102.507C310.292 103.341 311.168 104.498 311.66 105.83C312.319 107.615 312.243 109.589 311.448 111.317C310.653 113.046 309.204 114.389 307.42 115.05Z" fill="#FD8753" stroke="#3A3836" stroke-width="2" stroke-miterlimit="10"/>
<path d="M303.24 115.34L302.04 121.71" stroke="#3A3836" stroke-width="2" stroke-linecap="round" stroke-linejoin="round"/>
<path d="M320.8 178.73C319.301 178.73 317.835 178.285 316.588 177.453C315.342 176.62 314.37 175.436 313.797 174.051C313.223 172.666 313.073 171.142 313.365 169.671C313.658 168.201 314.38 166.85 315.44 165.79C316.5 164.73 317.851 164.008 319.321 163.716C320.791 163.423 322.315 163.573 323.7 164.147C325.086 164.721 326.269 165.692 327.102 166.939C327.935 168.185 328.38 169.651 328.38 171.15C328.381 172.146 328.186 173.132 327.805 174.052C327.425 174.973 326.867 175.809 326.163 176.513C325.458 177.217 324.622 177.775 323.702 178.156C322.782 178.536 321.795 178.731 320.8 178.73Z" stroke="#3A3836" stroke-width="2" stroke-linecap="round" stroke-linejoin="round"/>
<path d="M178.91 221.18C206.486 221.18 228.84 198.826 228.84 171.25C228.84 143.674 206.486 121.32 178.91 121.32C151.334 121.32 128.98 143.674 128.98 171.25C128.98 198.826 151.334 221.18 178.91 221.18Z" fill="white" stroke="#3A3836" stroke-width="2" stroke-linecap="round" stroke-linejoin="round"/>
<g style="mix-blend-mode:multiply">
<path d="M178.91 211C199.08 211 215.43 194.649 215.43 174.48C215.43 154.311 199.08 137.96 178.91 137.96C158.741 137.96 142.39 154.311 142.39 174.48C142.39 194.649 158.741 211 178.91 211Z" fill="#E5E5E5"/>
</g>
<path d="M173.13 91L140 105.42C140 105.42 140.66 105.94 141.88 106.78C149.88 112.28 175.41 134.31 198.04 107.58C199.64 105.756 200.861 103.631 201.63 101.33C201.925 100.474 202.107 99.5832 202.17 98.68C202.33 93.32 200.09 89.27 195.91 87.13C194.297 86.3477 192.544 85.8977 190.754 85.8066C188.964 85.7156 187.174 85.9854 185.49 86.6L173.13 91Z" fill="white" stroke="#3A3836" stroke-width="2" stroke-linecap="round" stroke-linejoin="round"/>
<path d="M202.17 100.59L209.81 103.06" stroke="#3A3836" stroke-width="2" stroke-linecap="round" stroke-linejoin="round"/>
<path d="M195.51 93.27L194.55 95.34" stroke="#3A3836" stroke-width="1.54" stroke-linecap="round" stroke-linejoin="round"/>
<path d="M179.67 87.69C179.67 87.69 182.67 111.07 150.75 100.36" stroke="#3A3836" stroke-width="2" stroke-miterlimit="10"/>
<path d="M242.5 189.7C255.69 193.31 270.01 182.96 274.5 166.58C278.99 150.2 272.85 134.24 259.66 130.58" stroke="#3A3836" stroke-width="1.8" stroke-linecap="round" stroke-linejoin="round"/>
<path d="M92.9299 230.4C92.9299 230.4 93.9299 215.83 75.6899 202.66C75.2675 202.354 74.7817 202.146 74.2683 202.053C73.7549 201.959 73.227 201.983 72.7239 202.121C72.2207 202.259 71.7551 202.509 71.3615 202.851C70.9678 203.194 70.6563 203.621 70.4499 204.1L69.4499 206.31C67.7593 210.205 67.5272 214.579 68.7959 218.631C70.0647 222.684 72.7497 226.144 76.3599 228.38C78.7837 229.961 81.5377 230.965 84.4102 231.315C87.2827 231.665 90.1972 231.352 92.9299 230.4Z" fill="white" stroke="#3A3836" stroke-width="2" stroke-linecap="round" stroke-linejoin="round"/>
<path d="M84.35 216.81L53.73 239.19C53.73 239.19 54.43 239.48 55.73 239.9C64.05 242.69 97.12 253.9 110.13 225.06C111.066 223.082 111.597 220.936 111.69 218.75C111.734 217.932 111.67 217.111 111.5 216.31C110.32 211.62 107.37 208.66 103.22 207.85C101.618 207.569 99.9749 207.615 98.3906 207.984C96.8062 208.354 95.3128 209.039 94 210L84.35 216.81Z" fill="white" stroke="#3A3836" stroke-width="2" stroke-linecap="round" stroke-linejoin="round"/>
<path d="M110.02 212.03L116.3 208.41" stroke="#3A3836" stroke-width="2" stroke-linecap="round" stroke-linejoin="round"/>
<path d="M101.28 214.98L101.79 216.98" stroke="#3A3836" stroke-width="2" stroke-linecap="round" stroke-linejoin="round"/>
<path d="M87.6499 221.11C85.5199 218.5 76.6499 209.5 56.9399 210.27C56.5007 210.294 56.0722 210.415 55.6848 210.623C55.2974 210.832 54.9606 211.123 54.6982 211.476C54.4358 211.829 54.2542 212.235 54.1664 212.666C54.0785 213.097 54.0866 213.542 54.1899 213.97L54.6399 215.77C57.4499 226.85 69.4799 233.18 79.9999 228.68C83.0843 227.355 85.7472 225.211 87.6999 222.48C87.8461 222.279 87.9207 222.035 87.9116 221.786C87.9026 221.538 87.8104 221.3 87.6499 221.11Z" fill="white" stroke="#3A3836" stroke-width="2" stroke-linecap="round" stroke-linejoin="round"/>
<mask id="mask0_23_591" style="mask-type:luminance" maskUnits="userSpaceOnUse" x="384" y="29" width="134" height="55">
<path d="M385.967 29.8088L384.939 81.0385L516.053 83.6704L517.081 32.4408L385.967 29.8088Z" fill="white"/>
</mask>
<g mask="url(#mask0_23_591)">
<path d="M385.53 80.37C385.595 75.8727 386.617 71.4409 388.53 67.37C390.302 63.5472 392.987 60.2193 396.35 57.68C399.439 55.332 403.148 53.9413 407.02 53.68C410.839 53.4743 414.631 54.4258 417.9 56.41C420.076 49.5803 424.089 43.481 429.5 38.78C434.42 34.5138 440.643 32.0456 447.15 31.78C453.606 31.6256 459.915 33.7182 465 37.7C470.553 42.0692 474.749 47.9269 477.1 54.59C480.657 51.5512 485.086 49.7168 489.75 49.35C494.349 49.0666 498.915 50.2958 502.75 52.85C506.897 55.6377 510.197 59.5123 512.29 64.05C514.579 68.9356 515.702 74.2863 515.57 79.68L385.53 80.37Z" fill="#FFDE83"/>
</g>
<mask id="mask1_23_591" style="mask-type:luminance" maskUnits="userSpaceOnUse" x="99" y="292" width="89" height="37">
<path d="M100.114 292.524L99.4253 326.827L187.218 328.589L187.906 294.286L100.114 292.524Z" fill="white"/>
</mask>
<g mask="url(#mask1_23_591)">
<path d="M99.8301 326.37C99.8706 323.358 100.552 320.388 101.83 317.66C103.022 315.102 104.821 312.874 107.07 311.17C109.141 309.61 111.623 308.688 114.21 308.52C116.769 308.379 119.311 309.017 121.5 310.35C122.961 305.777 125.648 301.692 129.27 298.54C132.559 295.678 136.724 294.02 141.08 293.84C145.407 293.744 149.633 295.158 153.03 297.84C156.749 300.766 159.562 304.688 161.14 309.15C163.519 307.117 166.48 305.888 169.6 305.64C172.677 305.453 175.732 306.274 178.3 307.98C181.074 309.855 183.284 312.451 184.69 315.49C186.222 318.76 186.975 322.34 186.89 325.95L99.8301 326.37Z" fill="#FFDE83"/>
</g>
<path d="M499.39 235L456.91 316.58C456.671 317.037 456.554 317.549 456.57 318.065C456.586 318.58 456.735 319.083 457.003 319.525C457.27 319.966 457.647 320.331 458.097 320.584C458.546 320.837 459.054 320.97 459.57 320.97H536.92C537.416 320.97 537.905 320.847 538.342 320.612C538.78 320.377 539.152 320.037 539.425 319.623C539.699 319.209 539.865 318.733 539.91 318.239C539.954 317.744 539.875 317.246 539.68 316.79L504.81 235.2C504.586 234.678 504.218 234.23 503.75 233.908C503.281 233.587 502.731 233.405 502.163 233.384C501.595 233.363 501.033 233.504 500.542 233.79C500.051 234.076 499.652 234.496 499.39 235Z" fill="#A2ECC2"/>
<path d="M499.39 195L456.91 276.58C456.671 277.037 456.554 277.549 456.57 278.065C456.586 278.58 456.735 279.083 457.003 279.525C457.27 279.966 457.647 280.331 458.097 280.584C458.546 280.837 459.054 280.97 459.57 280.97H536.92C537.416 280.97 537.905 280.847 538.342 280.612C538.78 280.377 539.152 280.037 539.425 279.623C539.699 279.209 539.865 278.733 539.91 278.239C539.954 277.744 539.875 277.246 539.68 276.79L504.81 195.2C504.586 194.678 504.218 194.23 503.75 193.908C503.281 193.587 502.731 193.405 502.163 193.384C501.595 193.363 501.033 193.504 500.542 193.79C500.051 194.076 499.652 194.496 499.39 195Z" fill="#A2ECC2"/>
<path d="M499.39 269L456.91 350.58C456.671 351.037 456.554 351.549 456.57 352.065C456.586 352.58 456.735 353.083 457.003 353.525C457.27 353.966 457.647 354.331 458.097 354.584C458.546 354.837 459.054 354.97 459.57 354.97H536.92C537.416 354.97 537.905 354.847 538.342 354.612C538.78 354.377 539.152 354.037 539.425 353.623C539.699 353.209 539.865 352.733 539.91 352.239C539.954 351.744 539.875 351.246 539.68 350.79L504.81 269.2C504.586 268.678 504.218 268.23 503.75 267.908C503.281 267.587 502.731 267.405 502.163 267.384C501.595 267.363 501.033 267.504 500.542 267.79C500.051 268.076 499.652 268.496 499.39 269Z" fill="#A2ECC2"/>
<path d="M498.24 374.02V331.8" stroke="#3A3836" stroke-width="2" stroke-linecap="round" stroke-linejoin="round"/>
<path d="M72.8401 117.46L80.1901 120.73L72.6701 123.66L69.3601 131.03L66.4601 123.53L59.1201 120.25L66.6301 117.32L69.9401 109.96L72.8401 117.46Z" fill="white" stroke="#3A3836" stroke-width="2" stroke-miterlimit="10"/>
<path d="M396.03 139.54L403.38 142.81L395.86 145.75L392.55 153.11L389.65 145.61L382.3 142.34L389.82 139.4L393.13 132.04L396.03 139.54Z" fill="white" stroke="#3A3836" stroke-width="2" stroke-miterlimit="10"/>
<path d="M145.26 242.85L148.93 244.49L145.18 245.95L143.52 249.63L142.07 245.88L138.4 244.25L142.16 242.78L143.81 239.1L145.26 242.85Z" fill="#3A3836"/>
<path d="M297.99 242.51H306.51C307.007 242.51 307.41 242.107 307.41 241.61V232.8C307.41 232.303 307.007 231.9 306.51 231.9H297.99C297.493 231.9 297.09 232.303 297.09 232.8V241.61C297.09 242.107 297.493 242.51 297.99 242.51Z" stroke="#3A3836" stroke-width="2" stroke-linecap="round" stroke-linejoin="round"/>
<path d="M320.8 211C320.8 211 307.6 249.74 346 261.74" stroke="#3A3836" stroke-width="2" stroke-linecap="round" stroke-linejoin="round"/>
<mask id="mask2_23_591" style="mask-type:luminance" maskUnits="userSpaceOnUse" x="142" y="132" width="74" height="85">
<path d="M215.44 132.08H142.4V216.89H215.44V132.08Z" fill="white"/>
</mask>
<g mask="url(#mask2_23_591)">
<path d="M179.21 205.31C197.767 205.31 212.81 190.267 212.81 171.71C212.81 153.153 197.767 138.11 179.21 138.11C160.653 138.11 145.61 153.153 145.61 171.71C145.61 190.267 160.653 205.31 179.21 205.31Z" fill="white"/>
<path d="M199.81 153.11C199.76 153.133 199.715 153.167 199.678 153.208C199.642 153.249 199.614 153.297 199.596 153.35C199.578 153.402 199.571 153.457 199.575 153.512C199.579 153.567 199.595 153.621 199.62 153.67C199.728 153.891 199.77 154.139 199.742 154.383C199.713 154.628 199.616 154.859 199.46 155.05C199.397 155.137 199.37 155.245 199.383 155.351C199.397 155.457 199.451 155.555 199.534 155.622C199.618 155.69 199.724 155.724 199.831 155.716C199.938 155.708 200.038 155.659 200.11 155.58C200.372 155.265 200.536 154.881 200.582 154.474C200.628 154.067 200.555 153.656 200.37 153.29C200.319 153.193 200.232 153.119 200.127 153.086C200.022 153.052 199.908 153.061 199.81 153.11Z" fill="#097BED"/>
<path d="M183.56 135.09C176.4 134.173 169.129 135.4 162.665 138.614C156.202 141.828 150.837 146.886 147.247 153.149C143.658 159.412 142.005 166.598 142.498 173.8C142.992 181.001 145.609 187.895 150.019 193.61C154.429 199.324 160.434 203.604 167.275 205.907C174.116 208.209 181.487 208.433 188.455 206.548C195.423 204.664 201.676 200.756 206.424 195.319C211.172 189.881 214.202 183.159 215.13 176C215.75 171.24 215.425 166.404 214.173 161.77C212.921 157.136 210.767 152.794 207.834 148.994C204.901 145.194 201.248 142.009 197.082 139.624C192.917 137.238 188.322 135.697 183.56 135.09ZM191.08 157.86C190.403 157.874 189.758 158.15 189.28 158.63L175.73 172.17L172.84 169.29C186.19 156 188.6 155.84 191.08 157.86ZM176.28 172.65L189.8 159.14C190.153 158.787 190.631 158.589 191.13 158.589C191.629 158.589 192.107 158.787 192.46 159.14C192.813 159.493 193.011 159.971 193.011 160.47C193.011 160.969 192.813 161.447 192.46 161.8L192.37 161.89L178.07 174.45L176.28 172.65ZM177.28 174.76L173.93 175.49C173.89 175.497 173.849 175.492 173.813 175.474C173.776 175.457 173.747 175.428 173.728 175.392C173.709 175.357 173.702 175.316 173.707 175.276C173.713 175.236 173.732 175.199 173.76 175.17L175.76 173.17L177.28 174.76ZM168.75 173.37L172.32 169.8L174.99 172.48L168.99 173.77C168.959 173.777 168.927 173.779 168.896 173.774C168.864 173.769 168.834 173.757 168.807 173.741C168.78 173.724 168.757 173.702 168.739 173.676C168.72 173.65 168.707 173.621 168.7 173.59C168.694 173.55 168.697 173.51 168.709 173.472C168.721 173.434 168.742 173.399 168.77 173.37H168.75ZM157.66 191.81C157.599 191.8 157.544 191.768 157.505 191.72C157.466 191.672 157.447 191.612 157.45 191.55C157.456 191.497 157.481 191.447 157.52 191.41L160.4 188.53L164.12 192.25L157.66 191.81ZM165.04 187.98C164.903 188.053 164.794 188.169 164.729 188.309C164.664 188.45 164.646 188.609 164.68 188.76L165.3 191.39C165.312 191.439 165.314 191.489 165.306 191.539C165.299 191.588 165.281 191.635 165.255 191.678C165.229 191.721 165.195 191.758 165.155 191.788C165.114 191.817 165.069 191.838 165.02 191.85C164.956 191.865 164.89 191.863 164.827 191.846C164.764 191.828 164.707 191.796 164.66 191.75L160.92 188L172.37 176.56L177.91 175.37L180.56 178.03C175.821 181.98 170.611 185.329 165.05 188L165.04 187.98ZM181.1 177.55L178.55 175L192.85 162.44C192.98 162.32 193.1 162.189 193.21 162.05C192.76 166.15 187 171.93 181.11 177.55H181.1ZM192.22 157.89C191.227 156.875 190.66 155.518 190.637 154.099C190.614 152.679 191.136 151.304 192.095 150.258C193.055 149.211 194.379 148.572 195.796 148.472C197.212 148.372 198.613 148.819 199.71 149.72L194.8 154.63C194.766 154.663 194.74 154.703 194.722 154.747C194.703 154.791 194.694 154.838 194.694 154.885C194.694 154.932 194.703 154.979 194.722 155.023C194.74 155.067 194.766 155.107 194.8 155.14L198.59 158.94C197.552 159.453 196.379 159.627 195.236 159.439C194.094 159.25 193.039 158.709 192.22 157.89ZM200.07 157.89C199.817 158.138 199.543 158.362 199.25 158.56L195.57 154.88L200.24 150.22C201.205 151.274 201.725 152.66 201.694 154.089C201.662 155.518 201.08 156.879 200.07 157.89Z" fill="#097BED"/>
<path d="M178.539 188.73C188.812 188.73 197.139 180.416 197.139 170.16C197.139 159.904 188.812 151.59 178.539 151.59C168.267 151.59 159.939 159.904 159.939 170.16C159.939 180.416 168.267 188.73 178.539 188.73Z" stroke="white" stroke-width="0.37"/>
<path d="M179.12 141.79C173.272 141.849 167.574 143.637 162.741 146.929C157.908 150.22 154.157 154.868 151.96 160.287C149.763 165.707 149.219 171.654 150.396 177.382C151.573 183.11 154.418 188.361 158.574 192.475C162.729 196.589 168.009 199.382 173.748 200.501C179.488 201.62 185.43 201.016 190.827 198.765C196.223 196.514 200.833 192.716 204.076 187.85C207.319 182.984 209.049 177.267 209.05 171.42C209.056 167.446 208.253 163.513 206.69 159.86C204.37 154.478 200.52 149.897 195.619 146.684C190.717 143.472 184.98 141.77 179.12 141.79ZM179.12 141.41C185.046 141.403 190.846 143.132 195.8 146.384C200.755 149.636 204.649 154.269 207 159.71C208.583 163.411 209.396 167.395 209.39 171.42C209.449 177.425 207.723 183.313 204.43 188.335C201.137 193.357 196.425 197.287 190.894 199.627C185.363 201.966 179.262 202.609 173.364 201.474C167.467 200.339 162.04 197.477 157.773 193.252C153.505 189.026 150.589 183.628 149.396 177.742C148.202 171.857 148.784 165.749 151.068 160.195C153.353 154.641 157.236 149.891 162.225 146.548C167.214 143.205 173.084 141.42 179.09 141.42L179.12 141.41Z" fill="white"/>
<path d="M179.14 188.61V207.67" stroke="white" stroke-width="0.37"/>
<path d="M179.14 134.76V151.76" stroke="white" stroke-width="0.37"/>
<path d="M197.09 171.92H215.3" stroke="white" stroke-width="0.31"/>
<path d="M142.45 171.92H160.23" stroke="white" stroke-width="0.37"/>
<path d="M164.72 157.83L152.56 146" stroke="white" stroke-width="0.37"/>
<path d="M204.6 197.24L191.18 183.81" stroke="white" stroke-width="0.37"/>
<path d="M165 184.26L152.62 196.6" stroke="white" stroke-width="0.37"/>
<path d="M204.05 144.69L199.05 149.69" stroke="white" stroke-width="0.37"/>
</g>
<defs>
<linearGradient id="paint0_linear_23_591" x1="378.97" y1="286.45" x2="396.27" y2="286.45" gradientUnits="userSpaceOnUse">
<stop stop-color="#FF7100"/>
<stop offset="0.3" stop-color="#FF7400"/>
<stop offset="0.5" stop-color="#FF7D00"/>
<stop offset="0.68" stop-color="#FF8B00"/>
<stop offset="0.84" stop-color="#FFA100"/>
<stop offset="0.98" stop-color="#FBBD23"/>
<stop offset="1" stop-color="#F9C025"/>
</linearGradient>
</defs>
</svg>
