<svg width="32" height="33" viewBox="0 0 32 33" fill="none" xmlns="http://www.w3.org/2000/svg">
<path d="M0 16.2001C0 25.0366 7.16344 32.2001 16 32.2001C24.8366 32.2001 32 25.0366 32 16.2001C32 7.36352 24.8366 0.200073 16 0.200073C7.16344 0.200073 0 7.36352 0 16.2001Z" fill="#1877F2"/>
<path d="M24 16.2001C24 11.8001 20.4 8.20007 16 8.20007C11.6 8.20007 8 11.8001 8 16.2001C8 20.2001 10.9 23.5001 14.7 24.1001V18.5001H12.7V16.2001H14.7V14.4001C14.7 12.4001 15.9 11.3001 17.7 11.3001C18.6 11.3001 19.5 11.5001 19.5 11.5001V13.5001H18.5C17.5 13.5001 17.2 14.1001 17.2 14.7001V16.2001H19.4L19 18.5001H17.1V24.2001C21.1 23.6001 24 20.2001 24 16.2001Z" fill="white"/>
</svg>
