<svg width="560" height="443" viewBox="0 0 560 443" fill="none" xmlns="http://www.w3.org/2000/svg">
<path d="M549.963 392.532H10.0273C53.1668 352.393 104.274 322.937 159.126 305.382C204.847 290.751 253.169 284.386 301.639 286.997C303.022 287.061 304.405 287.144 305.798 287.246C307.181 287.338 308.555 287.43 309.938 287.541C311.368 287.642 312.797 287.762 314.227 287.891C316.56 288.094 318.893 288.325 321.226 288.565C322.84 288.731 324.453 288.915 326.067 289.109C326.63 289.174 327.192 289.238 327.764 289.312C368.322 294.211 408.667 305.474 447.389 323.574C448.413 324.044 449.427 324.524 450.441 325.013C452.71 326.083 454.96 327.181 457.201 328.306C461.48 330.447 465.74 332.679 469.973 334.995C470.49 335.271 470.997 335.548 471.513 335.834C500.525 351.84 526.733 370.954 549.972 392.532H549.963Z" fill="#ADCDFB"/>
<path d="M236.653 369.82C234.643 369.386 232.503 369.894 230.502 369.423C227.404 368.759 225.246 366.01 223.346 363.492C219.62 358.39 215.581 353.076 209.753 350.632C203.04 347.772 195.044 349.303 188.34 346.397C178.049 341.914 174.71 329.396 169.472 319.432C166.77 314.266 163.229 309.488 159.107 305.364C240.332 279.276 330.549 279.128 416.856 310.881C435.401 317.707 453.134 325.798 470.001 334.949C465.51 337.947 460.991 340.927 456.482 343.962C452.811 346.388 448.947 348.879 444.558 349.349C437.42 350.106 430.993 345.272 424.039 343.409C408.252 339.248 390.638 350.659 375.653 344.193C372.093 342.661 368.801 340.152 364.937 339.811C357.329 339.137 351.879 346.859 344.935 350.17C337.558 353.713 328.677 351.877 320.811 354.147C312.189 356.573 305.696 363.482 298.633 368.999C290.72 375.161 281.48 379.885 271.521 381.213C261.589 382.597 250.947 380.373 243.2 374.045C241.162 372.385 239.217 370.364 236.644 369.811L236.653 369.82Z" fill="#A4EEC4"/>
<path d="M549.963 392.532H10.0273C53.1668 352.393 104.274 322.937 159.126 305.382C204.847 290.751 253.169 284.386 301.639 286.997C303.022 287.061 304.405 287.144 305.798 287.246C307.181 287.338 308.555 287.43 309.938 287.541C311.368 287.642 312.797 287.762 314.227 287.891C316.56 288.094 318.893 288.325 321.226 288.565C322.84 288.731 324.454 288.915 326.067 289.109C326.63 289.174 327.192 289.238 327.764 289.312C368.321 294.211 408.667 305.474 447.389 323.574C448.413 324.044 449.427 324.524 450.441 325.013C452.71 326.083 454.96 327.181 457.201 328.306C461.48 330.447 465.74 332.679 469.973 334.995C470.49 335.271 470.997 335.548 471.513 335.834C500.525 351.84 526.733 370.954 549.972 392.532H549.963Z" stroke="#3A3836" stroke-width="2" stroke-miterlimit="10"/>
<path d="M236.653 369.82C234.643 369.386 232.503 369.894 230.502 369.423C227.404 368.759 225.246 366.01 223.346 363.492C219.62 358.39 215.581 353.076 209.753 350.632C203.04 347.772 195.044 349.303 188.34 346.397C178.049 341.914 174.71 329.396 169.472 319.432C166.77 314.266 163.229 309.488 159.107 305.364C240.332 279.276 330.549 279.128 416.856 310.881C435.401 317.707 453.134 325.798 470.001 334.949C465.51 337.947 460.991 340.927 456.482 343.962C452.811 346.388 448.947 348.879 444.558 349.349C437.42 350.106 430.993 345.272 424.039 343.409C408.252 339.248 390.638 350.659 375.653 344.193C372.093 342.661 368.801 340.152 364.937 339.811C357.329 339.137 351.879 346.859 344.935 350.17C337.558 353.713 328.677 351.877 320.811 354.147C312.189 356.573 305.696 363.482 298.633 368.999C290.72 375.161 281.48 379.885 271.521 381.213C261.589 382.597 250.947 380.373 243.2 374.045C241.162 372.385 239.217 370.364 236.644 369.811L236.653 369.82Z" stroke="#3A3836" stroke-width="2" stroke-miterlimit="10"/>
<path d="M478.63 288.224L485.408 291.241L478.473 293.953L475.43 300.742L472.755 293.824L465.977 290.807L472.903 288.095L475.955 281.305L478.63 288.224Z" fill="white" stroke="#3A3836" stroke-width="2" stroke-miterlimit="10"/>
<path d="M139.96 223.104L146.738 226.12L139.803 228.833L136.76 235.622L134.086 228.703L127.308 225.687L134.242 222.975L137.286 216.185L139.96 223.104Z" fill="white" stroke="#3A3836" stroke-width="2" stroke-miterlimit="10"/>
<path d="M415.377 34.3866L422.156 37.4032L415.23 40.1154L412.178 46.905L409.503 39.9862L402.725 36.9696L409.66 34.2574L412.703 27.4678L415.377 34.3866Z" fill="white" stroke="#3A3836" stroke-width="2" stroke-miterlimit="10"/>
<path d="M370.707 191.398V295.06C370.707 296.712 369.831 298.234 368.402 299.055L280.961 349.553C279.532 350.374 277.779 350.374 276.35 349.553L188.909 299.055C187.48 298.234 186.604 296.712 186.604 295.06V191.398L278.656 244.571L370.707 191.398Z" fill="#FFDE83" stroke="#3A3836" stroke-width="2" stroke-linecap="round" stroke-linejoin="round"/>
<path d="M186.604 191.397L278.656 244.561L370.707 191.397L278.656 138.233L186.604 191.397Z" fill="#F7AC3B" stroke="#3A3836" stroke-width="2" stroke-linecap="round" stroke-linejoin="round"/>
<path d="M140.587 235.955L232.63 289.119L278.655 244.562L186.604 191.398L140.587 235.955Z" fill="#FFF4BE" stroke="#3A3836" stroke-width="2" stroke-linecap="round" stroke-linejoin="round"/>
<path d="M278.656 138.233L370.707 191.398L416.733 182.791L324.681 129.626L278.656 138.233Z" fill="#FFF4BE" stroke="#3A3836" stroke-width="2" stroke-linecap="round" stroke-linejoin="round"/>
<path d="M416.724 235.955L324.681 289.119L278.656 244.562L370.707 191.398L416.724 235.955Z" fill="#FFF4BE" stroke="#3A3836" stroke-width="2" stroke-linecap="round" stroke-linejoin="round"/>
<path d="M278.656 138.233L186.604 191.398L140.578 182.791L232.63 129.626L278.656 138.233Z" fill="#FFF4BE" stroke="#3A3836" stroke-width="2" stroke-linecap="round" stroke-linejoin="round"/>
<path d="M278.656 267.311V244.562" stroke="#3A3836" stroke-width="2" stroke-linecap="round" stroke-linejoin="round"/>
<path d="M278.656 350.171V302.403" stroke="#3A3836" stroke-width="2" stroke-linecap="round" stroke-linejoin="round"/>
<path d="M278.656 293.408V276.296" stroke="#3A3836" stroke-width="2" stroke-linecap="round" stroke-linejoin="round"/>
<path d="M186.604 191.398V262.542L140.578 235.964L186.604 191.398Z" fill="white"/>
<path d="M416.733 235.964L370.707 262.542V191.398L416.733 235.964Z" fill="white"/>
<path d="M140.587 235.955L232.63 289.119L278.655 244.562L186.604 191.398L140.587 235.955Z" fill="#FFF4BE" stroke="#3A3836" stroke-width="2" stroke-linecap="round" stroke-linejoin="round"/>
<path d="M416.724 235.955L324.681 289.119L278.656 244.562L370.707 191.398L416.724 235.955Z" fill="#FFF4BE" stroke="#3A3836" stroke-width="2" stroke-linecap="round" stroke-linejoin="round"/>
<path d="M13.3174 150.66L48.4616 185.807L96.4609 172.938L109.325 124.922L74.1811 89.7739L26.1818 102.643L13.3174 150.66Z" fill="url(#paint0_linear_18_751)" stroke="#3A3836" stroke-width="2" stroke-linejoin="round"/>
<path d="M188.005 174.47C193.437 179.304 198.362 184.774 202.557 190.964" stroke="#3A3836" stroke-width="2" stroke-linecap="round" stroke-linejoin="round"/>
<path d="M146.083 150.595C157.795 154.801 169.304 160.364 179.549 167.716" stroke="#3A3836" stroke-width="2" stroke-linecap="round" stroke-linejoin="round"/>
<path d="M61.3164 137.79C61.3164 137.79 68.4448 137.467 79.6677 138.057C91.7943 138.694 108.698 140.41 126.524 144.755" stroke="#3A3836" stroke-width="2" stroke-linecap="round" stroke-linejoin="round"/>
<path d="M431.361 104.036C427.534 110.373 427.377 110.549 421.383 114.884C414.162 120.115 404.987 121.536 396.503 124.257C388.019 126.978 379.203 132.052 376.777 140.632C375.551 144.977 376.159 149.589 376.427 154.1C376.86 161.36 376.132 169.294 371.3 174.728C366.606 180.013 359.21 181.702 352.69 184.423C346.17 187.144 339.457 192.467 339.78 199.534" stroke="#3A3836" stroke-width="2" stroke-linecap="round" stroke-linejoin="round" stroke-dasharray="4 8"/>
<path d="M434.854 99.3404L509.025 40.3828L449.286 77.9013L434.854 99.3404Z" fill="#ADCDFB" stroke="#3A3836" stroke-width="2" stroke-linecap="round" stroke-linejoin="round"/>
<path d="M509.025 40.3828L424.166 41.4714C422.589 41.4898 421.722 43.3164 422.709 44.5526L467.822 101.158C468.633 102.182 470.21 102.089 470.911 100.982L509.025 40.3828Z" fill="white" stroke="#3A3836" stroke-width="2" stroke-linecap="round" stroke-linejoin="round"/>
<path d="M509.025 40.3828L449.286 77.9013L434.854 99.3404L440.497 66.868L509.025 40.3828Z" fill="#D1DAFA" stroke="#3A3836" stroke-width="2" stroke-linecap="round" stroke-linejoin="round"/>
<path d="M234.419 183.187V199.562" stroke="#3A3836" stroke-width="2" stroke-linecap="round" stroke-linejoin="round"/>
<path d="M241.842 186.056V212.089" stroke="#3A3836" stroke-width="2" stroke-linecap="round" stroke-linejoin="round"/>
<path d="M264.417 163.279V203.104" stroke="#3A3836" stroke-width="2" stroke-linecap="round" stroke-linejoin="round"/>
<path d="M323.141 163.279V200.429" stroke="#3A3836" stroke-width="2" stroke-linecap="round" stroke-linejoin="round"/>
<path d="M299.312 223.224V193.51" stroke="#3A3836" stroke-width="2" stroke-linecap="round" stroke-linejoin="round"/>
<path d="M288.984 210.161V181.858" stroke="#3A3836" stroke-width="2" stroke-linecap="round" stroke-linejoin="round"/>
<path d="M307.298 197.052V180.945" stroke="#3A3836" stroke-width="2" stroke-linecap="round" stroke-linejoin="round"/>
<path d="M307.298 205.244V210.161" stroke="#3A3836" stroke-width="2" stroke-linecap="round" stroke-linejoin="round"/>
<path d="M264.417 218.556V212.089" stroke="#3A3836" stroke-width="2" stroke-linecap="round" stroke-linejoin="round"/>
<path d="M351.646 86.6183C351.646 84.884 351.646 83.1497 351.637 81.4154C351.637 79.9578 351.609 78.491 351.572 77.0334C351.489 73.8508 351.295 70.6405 350.733 67.4947C350.189 64.3397 349.184 61.2862 347.745 58.4357C344.822 52.6977 340.155 48.0298 334.42 45.1054C331.561 43.6663 328.508 42.6608 325.355 42.1165C322.21 41.5537 319.001 41.36 315.819 41.277C314.362 41.2401 312.896 41.2216 311.439 41.2124C309.705 41.2032 307.971 41.2032 306.238 41.2032L286.107 41.1294H271.047L251.267 41.2032C249.533 41.2032 247.79 41.2032 246.056 41.2124C244.59 41.2124 243.133 41.2401 241.667 41.277C238.476 41.36 235.267 41.5537 232.113 42.1165C228.959 42.6515 225.898 43.6663 223.03 45.1054C217.285 48.0205 212.609 52.6884 209.677 58.4357C208.229 61.2954 207.224 64.3489 206.679 67.5039C206.117 70.6497 205.923 73.86 205.84 77.0334C205.803 78.491 205.785 79.9486 205.776 81.4154C205.767 83.1497 205.674 85.2991 205.674 87.0334V121.766L205.767 141.692C205.767 143.426 205.767 145.161 205.776 146.904C205.776 148.371 205.803 149.829 205.84 151.286C205.923 154.469 206.117 157.688 206.679 160.834C207.224 163.989 208.229 167.052 209.667 169.912C212.6 175.659 217.275 180.327 223.02 183.26C225.879 184.699 228.95 185.714 232.104 186.249C235.258 186.812 238.467 187.006 241.658 187.089C243.124 187.126 244.581 187.144 246.047 187.153C247.781 187.163 249.524 187.163 251.258 187.163H306.229C307.962 187.163 309.696 187.163 311.43 187.153C312.887 187.153 314.353 187.126 315.81 187.089C318.991 187.006 322.201 186.812 325.345 186.249C328.499 185.705 331.552 184.699 334.41 183.26C340.146 180.336 344.812 175.659 347.736 169.912C349.174 167.052 350.189 163.989 350.724 160.834C351.286 157.688 351.48 154.469 351.563 151.286C351.6 149.829 351.618 148.362 351.627 146.904C351.637 145.17 351.637 143.436 351.637 141.692C351.637 141.692 351.637 122.116 351.637 121.766V106.526C351.637 106.268 351.637 86.6091 351.637 86.6091" fill="#212121"/>
<path d="M308.082 81.4985L276 121.821L307.75 147.163C317.221 138.823 322.643 126.803 322.634 114.183C322.634 101.046 317.018 89.5428 308.082 81.4985ZM309.004 125.142C307.068 125.142 305.5 123.565 305.5 121.628C305.5 120.982 305.684 120.336 306.026 119.783C306.874 118.408 307.418 116.868 307.63 115.272C307.852 113.094 307.39 110.908 306.33 109.008C306.228 108.832 306.118 108.657 306.007 108.482C306.007 108.482 306.007 108.482 306.007 108.473C304.947 106.858 305.491 104.672 307.141 103.657C308.608 102.744 310.526 103.039 311.642 104.358H311.66C312.426 105.447 313.053 106.646 313.523 107.91C313.901 108.888 314.196 109.903 314.39 110.945C315.229 115.262 314.408 119.58 311.983 123.482C311.347 124.515 310.212 125.142 309.004 125.142ZM268.89 125.124C267.377 123.915 267.128 121.711 268.336 120.198L302.521 77.2365C295.411 72.6332 287.13 70.1886 278.665 70.1978C254.374 70.1978 234.695 89.8933 234.695 114.183C234.695 138.473 254.384 158.168 278.665 158.168C286.9 158.177 294.969 155.871 301.95 151.498L268.899 125.115L268.89 125.124Z" fill="#EC7547"/>
<path d="M224.284 78.0581C223.804 78.0581 223.334 77.8736 222.965 77.5138C222.236 76.785 222.236 75.6042 222.965 74.8847L228.36 69.4972L222.965 64.1005C222.236 63.3718 222.236 62.2002 222.965 61.4714C223.693 60.7426 224.865 60.7426 225.593 61.4714L232.307 68.1873C232.657 68.5378 232.851 69.0083 232.851 69.5064C232.851 70.0046 232.657 70.4751 232.307 70.8256L225.593 77.5323C225.234 77.8921 224.754 78.0766 224.284 78.0766V78.0581Z" fill="white"/>
<path d="M243.29 77.9751H235.756C234.778 77.9751 233.985 77.1817 233.985 76.2038C233.985 75.226 234.778 74.4326 235.756 74.4326H243.29C244.267 74.4326 245.06 75.226 245.06 76.2038C245.06 77.1817 244.267 77.9751 243.29 77.9751Z" fill="white"/>
<path d="M242.764 183.196V187.126C242.395 187.117 242.027 187.108 241.658 187.099C241.409 187.089 241.169 187.089 240.92 187.08V183.196C240.92 182.689 241.335 182.274 241.842 182.274C242.349 182.274 242.764 182.689 242.764 183.196Z" fill="#F7AC3B"/>
<path d="M289.906 176.831V187.173H288.062V176.831C288.062 176.324 288.477 175.909 288.984 175.909C289.491 175.909 289.906 176.324 289.906 176.831Z" fill="#F7AC3B"/>
<path d="M139.782 433H133.974V405.976H145.11C148.15 405.976 150.534 406.76 152.262 408.328C153.99 409.864 154.854 412.168 154.854 415.24C154.854 417.928 153.958 420.04 152.166 421.576C150.406 423.08 148.054 423.832 145.11 423.832H139.782V433ZM144.294 410.68H139.782V419.704H144.294C145.83 419.704 147.094 419.336 148.086 418.6C149.11 417.832 149.622 416.696 149.622 415.192C149.622 413.656 149.126 412.52 148.134 411.784C147.142 411.048 145.862 410.68 144.294 410.68ZM166.85 433.48C164.546 433.48 162.642 433.048 161.138 432.184C159.634 431.32 158.498 430.12 157.73 428.584C156.994 427.048 156.626 425.304 156.626 423.352C156.562 420.408 157.394 417.976 159.122 416.056C160.85 414.136 163.426 413.176 166.85 413.176C170.178 413.176 172.706 414.104 174.434 415.96C176.162 417.816 177.026 420.28 177.026 423.352C177.026 425.272 176.658 427 175.922 428.536C175.186 430.04 174.066 431.24 172.562 432.136C171.058 433.032 169.154 433.48 166.85 433.48ZM166.85 428.632C168.162 428.632 169.138 428.36 169.778 427.816C170.45 427.272 170.898 426.584 171.122 425.752C171.346 424.888 171.458 424.024 171.458 423.16C171.458 422.264 171.346 421.4 171.122 420.568C170.898 419.704 170.45 419 169.778 418.456C169.138 417.88 168.162 417.592 166.85 417.592C165.538 417.592 164.546 417.88 163.874 418.456C163.202 419 162.754 419.704 162.53 420.568C162.306 421.4 162.194 422.264 162.194 423.16C162.194 424.024 162.306 424.888 162.53 425.752C162.754 426.584 163.202 427.272 163.874 427.816C164.546 428.36 165.538 428.632 166.85 428.632ZM189.001 433.48C188.425 433.48 187.625 433.384 186.601 433.192C185.609 433 184.585 432.648 183.529 432.136C182.505 431.624 181.625 430.888 180.889 429.928C180.185 428.936 179.833 427.656 179.833 426.088H185.161C185.161 426.12 185.177 426.312 185.209 426.664C185.241 426.984 185.353 427.352 185.545 427.768C185.737 428.184 186.089 428.552 186.601 428.872C187.113 429.16 187.865 429.304 188.857 429.304C190.009 429.304 190.809 429.096 191.257 428.68C191.705 428.264 191.929 427.848 191.929 427.432C191.929 426.856 191.641 426.392 191.065 426.04C190.521 425.688 189.801 425.4 188.905 425.176C188.009 424.92 187.049 424.648 186.025 424.36C185.033 424.04 184.089 423.656 183.193 423.208C182.329 422.728 181.609 422.088 181.033 421.288C180.457 420.488 180.185 419.464 180.217 418.216C180.217 416.296 180.953 414.872 182.425 413.944C183.929 412.984 185.833 412.504 188.137 412.504C189.865 412.504 191.433 412.792 192.841 413.368C194.281 413.912 195.417 414.744 196.249 415.864C197.081 416.984 197.513 418.392 197.545 420.088H192.265C192.297 419.224 192.105 418.568 191.689 418.12C191.305 417.64 190.809 417.32 190.201 417.16C189.593 416.968 188.985 416.872 188.377 416.872C187.321 416.872 186.569 417.064 186.121 417.448C185.705 417.8 185.497 418.2 185.497 418.648C185.497 419.32 185.785 419.848 186.361 420.232C186.937 420.584 187.673 420.888 188.569 421.144C189.497 421.4 190.473 421.672 191.497 421.96C192.521 422.248 193.481 422.616 194.377 423.064C195.273 423.512 196.009 424.12 196.585 424.888C197.193 425.624 197.497 426.6 197.497 427.816C197.497 429.704 196.729 431.128 195.193 432.088C193.657 433.016 191.593 433.48 189.001 433.48ZM207.812 433C206.084 433 204.74 432.584 203.78 431.752C202.82 430.92 202.34 429.48 202.34 427.432V417.208H199.508V413.224C200.34 413.224 201.012 413.128 201.524 412.936C202.068 412.712 202.468 412.248 202.724 411.544C203.012 410.808 203.156 409.688 203.156 408.184H207.764V413.224H212.276V417.208H207.764V428.536H212.372V433H207.812ZM225.106 433L233.314 405.976H242.866L251.314 433H245.122L243.106 425.8H233.314L231.346 433H225.106ZM238.21 408.376L234.562 421.336H241.858L238.21 408.376ZM264.902 433V405.976H274.982L280.166 430.552H280.262L285.35 405.976H295.382V433H289.382L289.814 408.472H289.718L284.39 433H275.942L270.662 408.472H270.566L270.902 433H264.902ZM309.206 433.48C306.87 433.48 304.966 433 303.494 432.04C302.054 431.08 300.982 429.848 300.278 428.344C299.606 426.808 299.254 425.192 299.222 423.496C299.19 421.416 299.574 419.592 300.374 418.024C301.174 416.456 302.31 415.24 303.782 414.376C305.286 413.512 307.03 413.08 309.014 413.08C310.838 413.08 312.47 413.464 313.91 414.232C315.35 415 316.486 416.104 317.318 417.544C318.15 418.952 318.582 420.632 318.614 422.584C318.614 422.616 318.614 422.792 318.614 423.112C318.614 423.432 318.614 423.672 318.614 423.832H304.742C304.742 425.464 305.126 426.68 305.894 427.48C306.694 428.28 307.766 428.68 309.11 428.68C310.166 428.68 311.03 428.424 311.702 427.912C312.406 427.4 312.822 426.728 312.95 425.896H318.566C318.374 427.976 317.478 429.768 315.878 431.272C314.31 432.744 312.086 433.48 309.206 433.48ZM304.838 421.384H312.806C312.806 421.256 312.774 421 312.71 420.616C312.646 420.232 312.486 419.832 312.23 419.416C311.974 418.968 311.574 418.584 311.03 418.264C310.518 417.944 309.798 417.784 308.87 417.784C307.654 417.784 306.758 418.04 306.182 418.552C305.638 419.032 305.286 419.576 305.126 420.184C304.966 420.76 304.87 421.16 304.838 421.384ZM330.891 433.48C330.315 433.48 329.515 433.384 328.491 433.192C327.499 433 326.475 432.648 325.419 432.136C324.395 431.624 323.515 430.888 322.779 429.928C322.075 428.936 321.723 427.656 321.723 426.088H327.051C327.051 426.12 327.067 426.312 327.099 426.664C327.131 426.984 327.243 427.352 327.435 427.768C327.627 428.184 327.979 428.552 328.491 428.872C329.003 429.16 329.755 429.304 330.747 429.304C331.899 429.304 332.699 429.096 333.147 428.68C333.595 428.264 333.819 427.848 333.819 427.432C333.819 426.856 333.531 426.392 332.955 426.04C332.411 425.688 331.691 425.4 330.795 425.176C329.899 424.92 328.939 424.648 327.915 424.36C326.923 424.04 325.979 423.656 325.083 423.208C324.219 422.728 323.499 422.088 322.923 421.288C322.347 420.488 322.075 419.464 322.107 418.216C322.107 416.296 322.843 414.872 324.315 413.944C325.819 412.984 327.723 412.504 330.027 412.504C331.755 412.504 333.323 412.792 334.731 413.368C336.171 413.912 337.307 414.744 338.139 415.864C338.971 416.984 339.403 418.392 339.435 420.088H334.155C334.187 419.224 333.995 418.568 333.579 418.12C333.195 417.64 332.699 417.32 332.091 417.16C331.483 416.968 330.875 416.872 330.267 416.872C329.211 416.872 328.459 417.064 328.011 417.448C327.595 417.8 327.387 418.2 327.387 418.648C327.387 419.32 327.675 419.848 328.251 420.232C328.827 420.584 329.563 420.888 330.459 421.144C331.387 421.4 332.363 421.672 333.387 421.96C334.411 422.248 335.371 422.616 336.267 423.064C337.163 423.512 337.899 424.12 338.475 424.888C339.083 425.624 339.387 426.6 339.387 427.816C339.387 429.704 338.619 431.128 337.083 432.088C335.547 433.016 333.483 433.48 330.891 433.48ZM350.532 433.48C349.956 433.48 349.156 433.384 348.132 433.192C347.14 433 346.116 432.648 345.06 432.136C344.036 431.624 343.156 430.888 342.42 429.928C341.716 428.936 341.364 427.656 341.364 426.088H346.692C346.692 426.12 346.708 426.312 346.74 426.664C346.772 426.984 346.884 427.352 347.076 427.768C347.268 428.184 347.62 428.552 348.132 428.872C348.644 429.16 349.396 429.304 350.388 429.304C351.54 429.304 352.34 429.096 352.788 428.68C353.236 428.264 353.46 427.848 353.46 427.432C353.46 426.856 353.172 426.392 352.596 426.04C352.052 425.688 351.332 425.4 350.436 425.176C349.54 424.92 348.58 424.648 347.556 424.36C346.564 424.04 345.62 423.656 344.724 423.208C343.86 422.728 343.14 422.088 342.564 421.288C341.988 420.488 341.716 419.464 341.748 418.216C341.748 416.296 342.484 414.872 343.956 413.944C345.46 412.984 347.364 412.504 349.668 412.504C351.396 412.504 352.964 412.792 354.372 413.368C355.812 413.912 356.948 414.744 357.78 415.864C358.612 416.984 359.044 418.392 359.076 420.088H353.796C353.828 419.224 353.636 418.568 353.22 418.12C352.836 417.64 352.34 417.32 351.732 417.16C351.124 416.968 350.516 416.872 349.908 416.872C348.852 416.872 348.1 417.064 347.652 417.448C347.236 417.8 347.028 418.2 347.028 418.648C347.028 419.32 347.316 419.848 347.892 420.232C348.468 420.584 349.204 420.888 350.1 421.144C351.028 421.4 352.004 421.672 353.028 421.96C354.052 422.248 355.012 422.616 355.908 423.064C356.804 423.512 357.54 424.12 358.116 424.888C358.724 425.624 359.028 426.6 359.028 427.816C359.028 429.704 358.26 431.128 356.724 432.088C355.188 433.016 353.124 433.48 350.532 433.48ZM368.815 433.48C366.095 433.48 364.191 432.568 363.103 430.744C362.015 428.888 361.471 426.44 361.471 423.4C361.471 420.328 362.015 417.864 363.103 416.008C364.223 414.12 366.127 413.176 368.815 413.176C370.031 413.176 371.039 413.352 371.839 413.704C372.639 414.024 373.279 414.424 373.759 414.904C374.239 415.384 374.575 415.832 374.767 416.248C374.991 416.632 375.135 416.872 375.199 416.968H375.295V413.224H381.247V433H376.207L375.295 430.024H375.199C375.135 430.184 374.895 430.552 374.479 431.128C374.095 431.672 373.439 432.2 372.511 432.712C371.615 433.224 370.383 433.48 368.815 433.48ZM371.215 428.632C372.367 428.632 373.231 428.392 373.807 427.912C374.383 427.432 374.767 426.808 374.959 426.04C375.151 425.24 375.247 424.376 375.247 423.448C375.247 422.488 375.151 421.624 374.959 420.856C374.767 420.056 374.383 419.432 373.807 418.984C373.231 418.504 372.367 418.264 371.215 418.264C370.063 418.264 369.183 418.504 368.575 418.984C367.999 419.464 367.615 420.104 367.423 420.904C367.231 421.672 367.135 422.52 367.135 423.448C367.135 424.376 367.231 425.24 367.423 426.04C367.615 426.808 367.999 427.432 368.575 427.912C369.183 428.392 370.063 428.632 371.215 428.632ZM390.357 442.168V436.696H398.469V429.88H398.373C398.341 429.944 398.213 430.168 397.989 430.552C397.797 430.904 397.445 431.304 396.933 431.752C396.453 432.2 395.813 432.6 395.013 432.952C394.245 433.304 393.269 433.48 392.085 433.48C389.141 433.48 387.061 432.568 385.845 430.744C384.661 428.92 384.069 426.488 384.069 423.448C384.069 420.248 384.677 417.752 385.893 415.96C387.109 414.136 389.173 413.224 392.085 413.224C393.333 413.224 394.357 413.416 395.157 413.8C395.957 414.184 396.581 414.632 397.029 415.144C397.509 415.656 397.845 416.12 398.037 416.536C398.229 416.92 398.341 417.128 398.373 417.16H398.469V413.224H404.421V433.816C404.421 436.984 403.797 439.16 402.549 440.344C401.301 441.56 399.413 442.168 396.885 442.168H390.357ZM394.005 428.632C395.765 428.632 396.933 428.136 397.509 427.144C398.117 426.12 398.421 424.888 398.421 423.448C398.421 422.04 398.133 420.84 397.557 419.848C396.981 418.824 395.829 418.312 394.101 418.312C392.853 418.312 391.909 418.568 391.269 419.08C390.661 419.56 390.245 420.2 390.021 421C389.797 421.768 389.685 422.584 389.685 423.448C389.685 424.344 389.781 425.192 389.973 425.992C390.197 426.76 390.613 427.4 391.221 427.912C391.861 428.392 392.789 428.632 394.005 428.632ZM417.253 433.48C414.917 433.48 413.013 433 411.541 432.04C410.101 431.08 409.029 429.848 408.325 428.344C407.653 426.808 407.301 425.192 407.269 423.496C407.237 421.416 407.621 419.592 408.421 418.024C409.221 416.456 410.357 415.24 411.829 414.376C413.333 413.512 415.077 413.08 417.061 413.08C418.885 413.08 420.517 413.464 421.957 414.232C423.397 415 424.533 416.104 425.365 417.544C426.197 418.952 426.629 420.632 426.661 422.584C426.661 422.616 426.661 422.792 426.661 423.112C426.661 423.432 426.661 423.672 426.661 423.832H412.789C412.789 425.464 413.173 426.68 413.941 427.48C414.741 428.28 415.813 428.68 417.157 428.68C418.213 428.68 419.077 428.424 419.749 427.912C420.453 427.4 420.869 426.728 420.997 425.896H426.613C426.421 427.976 425.525 429.768 423.925 431.272C422.357 432.744 420.133 433.48 417.253 433.48ZM412.885 421.384H420.853C420.853 421.256 420.821 421 420.757 420.616C420.693 420.232 420.533 419.832 420.277 419.416C420.021 418.968 419.621 418.584 419.077 418.264C418.565 417.944 417.845 417.784 416.917 417.784C415.701 417.784 414.805 418.04 414.229 418.552C413.685 419.032 413.333 419.576 413.173 420.184C413.013 420.76 412.917 421.16 412.885 421.384Z" fill="#4A4A4A"/>
<defs>
<linearGradient id="paint0_linear_18_751" x1="30.8941" y1="168.233" x2="91.7705" y2="107.37" gradientUnits="userSpaceOnUse">
<stop stop-color="#FF6D37"/>
<stop offset="1" stop-color="#F7AC3B"/>
</linearGradient>
</defs>
</svg>
