<svg width="43" height="43" viewBox="0 0 43 43" fill="none" xmlns="http://www.w3.org/2000/svg">
<path d="M29.9344 24.3206C29.5686 24.6614 28.9856 24.6409 28.6448 24.2751C28.3039 23.9093 28.3244 23.3263 28.6902 22.9854C31.2691 20.5823 31.4124 16.5189 29.0092 13.9401C26.6061 11.3612 22.5427 11.2179 19.9639 13.6211C17.385 16.0242 17.2417 20.0876 19.6449 22.6664C19.9858 23.0322 19.9652 23.6152 19.5994 23.9561C19.2336 24.297 18.6506 24.2764 18.3097 23.9106C15.2163 20.591 15.3916 15.3702 18.7203 12.2683C22.049 9.16632 27.2516 9.35863 30.345 12.6782C33.4384 15.9978 33.2631 21.2186 29.9344 24.3206Z" fill="#292D32"/>
<path d="M12.4659 18.0795C12.8317 17.7387 13.4147 17.7592 13.7556 18.125C14.0965 18.4908 14.0759 19.0738 13.7101 19.4147C11.1313 21.8179 10.988 25.8812 13.3911 28.46C15.7943 31.0389 19.8576 31.1822 22.4365 28.779C25.0153 26.3759 25.1586 22.3125 22.7554 19.7337C22.4146 19.3679 22.4351 18.7849 22.8009 18.444C23.1667 18.1031 23.7497 18.1237 24.0906 18.4895C27.184 21.8091 27.0088 27.0299 23.68 30.1318C20.3513 33.2338 15.1488 33.0415 12.0553 29.7219C8.96192 26.4023 9.13719 21.1815 12.4659 18.0795Z" fill="#292D32"/>
</svg>
