<svg width="624" height="468" viewBox="0 0 624 468" fill="none" xmlns="http://www.w3.org/2000/svg">
<path d="M119.763 298.562L118.794 400.809C118.794 400.809 117.747 423.997 126.349 425.323C126.349 425.323 131.43 436.911 152.267 427.34C152.267 427.34 164.112 423.796 162.909 393.521L164.914 351.635L169.16 349.819H176.614L178.743 355.825L183.757 407.962C183.757 407.962 187.1 429.635 208.271 427.763C208.271 427.763 225.632 429.602 226.401 397.065L220.64 309.66C220.64 309.66 239.75 308.858 238.847 286.416C238.847 286.416 235.371 272.889 216.651 273.045L217.821 265.557C217.821 265.557 258.381 269.88 291.887 248.018L264.899 248.809L263.952 224.217C263.952 224.217 245.856 233.755 221.275 222.868C221.275 222.868 257.812 197.373 239.271 153.983C239.271 153.983 227.013 114.404 174.118 122.783C174.118 122.783 126.951 131.085 132.789 188.749L139.007 204.873L118.694 203.569C118.694 203.569 111.908 203.145 107.751 226.969C103.595 250.792 101.066 281.268 101.066 281.268C101.066 281.268 94.2017 297.269 119.763 298.562Z" fill="white"/>
<path d="M261.779 409.299V350.242L321.171 338.91L286.717 331.623V303.498L348.214 290.829L316.457 284.566V263.395L375.358 253.779V237.677H390.39L397.566 224.529L435.318 227.091L437.781 227.348L441.123 216.272L509.541 223.024L514.154 237.677L532.818 239.661L551.761 255.784L555.471 264.364V273.401L512.014 368.739C512.014 368.739 509.485 381.843 491.032 381.275L481.583 380.462L478.887 406.224L474.273 408.174L474.507 419.417L481.672 416.152L479.934 426.181L440.444 444.856C440.444 444.856 433.58 448.444 431.797 438.494L432.8 424.521L393.064 442.461L261.779 409.299Z" fill="white"/>
<path d="M55.2463 402.959C55.2463 402.959 44.4377 359.034 64.8737 357.106C79.7383 355.702 74.0777 402.959 74.0777 402.959H55.2463Z" fill="#A2ECC2"/>
<path d="M70.2 402.959C70.2 402.959 63.2803 341.317 83.1814 324.257C103.083 307.197 94.1349 403.16 94.1349 403.16L70.2 402.959Z" fill="#A2ECC2"/>
<path d="M93.6 402.959C93.6 402.959 86.6357 356.761 106.548 343.802C126.46 330.843 117.49 402.513 117.49 402.513L93.6 402.959Z" fill="#A2ECC2"/>
<path d="M121.145 294.773C121.145 294.773 136.389 300.946 145.86 290.817L140.623 289.179L121.145 287.486V294.773Z" fill="#E5E5E5"/>
<path d="M170.252 230.824C170.252 230.824 193.451 246.224 217.876 238.167L216.049 226.891C216.049 226.891 193.251 238.892 170.252 230.824Z" fill="#E5E5E5"/>
<path d="M554.001 276.588L532.773 323.143L611.743 324.391C611.474 319.378 610.145 314.478 607.843 310.017C605.71 305.837 602.584 302.244 598.739 299.553C595.204 297.076 591.02 295.689 586.705 295.564C582.439 295.492 578.25 296.703 574.682 299.041C571.995 291.52 567.287 284.885 561.076 279.864C559.423 278.563 557.655 277.414 555.795 276.432L554.001 276.588Z" fill="#FFDE83"/>
<path d="M263.239 420.854C263.239 429.412 224.885 436.343 177.617 436.343C130.349 436.343 91.9954 429.412 91.9954 420.854C91.9954 416.587 103.551 412.743 118.972 409.656C118.972 409.656 121.836 421.668 126.349 425.367C141.882 438.115 146.896 428.944 156.334 423.763C160.791 421.3 161.817 405.778 163.934 405.656C168.505 405.312 173.091 405.219 177.673 405.377C182.13 405.377 178.91 405.645 183.122 405.511C185.083 405.511 186.465 418.726 190.097 421.668C192.682 423.763 200.995 428.209 207.77 427.819C213.453 427.484 216.818 423.484 219.648 421.568C221.631 420.253 224.607 407.706 226.802 407.951C250.904 410.692 263.239 415.305 263.239 420.854Z" fill="#E4E4E4"/>
<path d="M385.543 299.943L397.332 312.256C401.88 310.595 406.798 310.22 411.545 311.171C416.292 312.123 420.685 314.364 424.242 317.649L482.363 302.384L425.356 297.927L406.269 302.384L385.543 299.943Z" fill="#E5E5E5"/>
<path d="M368.405 375.057V349.306L394.457 354.399L431.229 344.203L469.27 351.657L483.232 354.399L473.07 357.329L469.27 351.657L430.114 362.511C430.114 362.511 422.314 360.137 423.295 371.726L417.567 373.386L411.662 364.594H382.779L375.336 376.629L368.405 375.057Z" fill="#E5E5E5"/>
<path d="M336.213 313.07L286.717 303.498L350.231 290.817L380.919 297.358L336.949 305.727L341.863 313.371L336.213 313.07Z" fill="#E5E5E5"/>
<path d="M262.503 351.791L318.507 339.467L329.739 340.715L315.343 350.231V362.511L262.503 351.791Z" fill="#E5E5E5"/>
<path d="M444.5 433.078L481.672 416.152L480.19 425.601L442.672 443.129L444.5 433.078Z" stroke="#3A3836" stroke-width="2" stroke-linecap="round" stroke-linejoin="round"/>
<path d="M188.058 233.699C219.179 233.699 244.407 208.471 244.407 177.35C244.407 146.229 219.179 121 188.058 121C156.937 121 131.709 146.229 131.709 177.35C131.709 208.471 156.937 233.699 188.058 233.699Z" stroke="#3A3836" stroke-width="2" stroke-linecap="round" stroke-linejoin="round"/>
<path d="M140.088 206.923C119.919 231.147 119.184 327.266 119.184 327.266V409.255C119.184 414.97 121.454 420.452 125.496 424.493C129.537 428.535 135.019 430.805 140.734 430.805C146.45 430.805 151.931 428.535 155.973 424.493C160.014 420.452 162.285 414.97 162.285 409.255L164.513 353.251C164.591 348.794 171.723 349.072 174.074 349.072C175.216 349.071 176.316 349.508 177.145 350.294C177.975 351.08 178.471 352.154 178.531 353.295L183.3 405.021C184.971 418.882 193.407 427.797 205.976 427.953C218.734 428.097 226.456 415.049 226.479 402.324L220.718 309.716" stroke="#3A3836" stroke-width="2" stroke-linecap="round" stroke-linejoin="round"/>
<path d="M221.331 222.857C223.049 223.95 224.899 224.823 226.835 225.453C234.635 228.206 250.948 231.025 276.287 221.643C280.145 220.193 284.419 220.328 288.177 222.019C291.935 223.71 294.871 226.82 296.344 230.668C297.688 234.208 297.699 238.115 296.374 241.662C295.05 245.209 292.481 248.153 289.146 249.945C277.569 256.119 253.177 268.632 219.581 265.545" stroke="#3A3836" stroke-width="2" stroke-linecap="round" stroke-linejoin="round"/>
<path d="M216.706 226.523C216.706 226.523 221.264 245.143 217.642 271.73" stroke="#3A3836" stroke-width="2" stroke-linecap="round" stroke-linejoin="round"/>
<path d="M219.514 265.512C219.514 265.512 232.083 245.265 226.813 225.398" stroke="#3A3836" stroke-width="2" stroke-linecap="round" stroke-linejoin="round"/>
<path d="M135.263 214.779C135.263 214.779 158.886 230.98 157.293 251.773C157.293 251.773 172.269 271.083 221.553 273.279C226.228 273.494 230.64 275.503 233.872 278.888C237.103 282.272 238.905 286.773 238.903 291.453C238.903 296.281 236.985 300.913 233.57 304.327C230.155 307.742 225.524 309.66 220.695 309.66C200.36 309.66 167.956 307.197 150.016 293.135C150.016 293.135 137.469 287.252 122.538 271.73" stroke="#3A3836" stroke-width="2" stroke-linecap="round" stroke-linejoin="round"/>
<path d="M163.733 228.195C163.733 228.195 170.53 240.318 164.201 257.701" stroke="#3A3836" stroke-width="2" stroke-linecap="round" stroke-linejoin="round"/>
<path d="M121.145 286.371C121.145 286.371 123.73 290.829 142.952 288.923" stroke="#3A3836" stroke-width="2" stroke-linecap="round" stroke-linejoin="round"/>
<path d="M139.063 204.806L129.58 203.313C122.003 202.087 116.454 200.705 111.696 213.341C106.425 227.314 102.938 252.096 100.063 282.605C98.748 296.634 107.183 297.782 115.596 298.261L119.763 298.562" stroke="#3A3836" stroke-width="2" stroke-linecap="round" stroke-linejoin="round"/>
<path d="M261.779 409.299L393.064 442.505V380.462L261.779 351.635V409.299Z" stroke="#3A3836" stroke-width="2" stroke-linecap="round" stroke-linejoin="round"/>
<path d="M432.8 425.702L393.064 442.505" stroke="#3A3836" stroke-width="2" stroke-linecap="round" stroke-linejoin="round"/>
<path d="M473.115 357.329L483.277 354.399L479.934 405.778L474.273 408.174" stroke="#3A3836" stroke-width="2" stroke-linecap="round" stroke-linejoin="round"/>
<path d="M321.171 338.899L261.779 351.635" stroke="#3A3836" stroke-width="2" stroke-linecap="round" stroke-linejoin="round"/>
<path d="M286.717 303.498L394.435 324.335V354.399L286.717 331.611V303.498Z" stroke="#3A3836" stroke-width="2" stroke-linecap="round" stroke-linejoin="round"/>
<path d="M394.435 324.335L484.391 303.498L479.934 329.706L394.435 354.399" stroke="#3A3836" stroke-width="2" stroke-linecap="round" stroke-linejoin="round"/>
<path d="M316.435 263.373V284.566L406.246 302.384V278.928L316.435 263.373Z" stroke="#3A3836" stroke-width="2" stroke-linecap="round" stroke-linejoin="round"/>
<path d="M406.246 278.928L491.211 261.857L487.868 282.884L406.246 302.384" stroke="#3A3836" stroke-width="2" stroke-linecap="round" stroke-linejoin="round"/>
<path d="M286.717 303.498L347.234 291.787" stroke="#3A3836" stroke-width="2" stroke-linecap="round" stroke-linejoin="round"/>
<path d="M484.391 303.498L425.334 297.882" stroke="#3A3836" stroke-width="2" stroke-linecap="round" stroke-linejoin="round"/>
<path d="M315.343 362.511V350.231L351.68 357.853V371.38" stroke="#3A3836" stroke-width="2" stroke-linecap="round" stroke-linejoin="round"/>
<path d="M351.68 357.853L368.405 349.306V375.057" stroke="#3A3836" stroke-width="2" stroke-linecap="round" stroke-linejoin="round"/>
<path d="M315.343 350.231L329.739 340.715" stroke="#3A3836" stroke-width="2" stroke-linecap="round" stroke-linejoin="round"/>
<path d="M413.522 237.677H375.336V269.824H413.522V237.677Z" stroke="#3A3836" stroke-width="2" stroke-linecap="round" stroke-linejoin="round"/>
<path d="M440.132 269.835C450.36 269.835 458.651 261.544 458.651 251.316C458.651 241.088 450.36 232.797 440.132 232.797C429.904 232.797 421.612 241.088 421.612 251.316C421.612 261.544 429.904 269.835 440.132 269.835Z" stroke="#3A3836" stroke-width="2" stroke-linecap="round" stroke-linejoin="round"/>
<path d="M457.927 258.704L491.211 261.857" stroke="#3A3836" stroke-width="2" stroke-linecap="round" stroke-linejoin="round"/>
<path d="M429 362.143L469.114 351.602C469.114 351.602 478.441 351.602 473.471 419.573" stroke="#3A3836" stroke-width="2" stroke-linecap="round" stroke-linejoin="round"/>
<path d="M440.745 444.021L480.19 425.657L482.296 415.918L444.5 433.134L443.486 439.931C443.28 441.327 442.579 442.603 441.512 443.525C440.444 444.448 439.08 444.956 437.669 444.957C436.855 444.958 436.05 444.79 435.305 444.464C434.559 444.138 433.889 443.661 433.337 443.063C432.785 442.465 432.364 441.76 432.098 440.99C431.833 440.221 431.731 439.405 431.797 438.594C434.516 405.221 437.424 361.987 428.833 362.232C428.833 362.232 423.986 361.875 423.261 371.781" stroke="#3A3836" stroke-width="2" stroke-linecap="round" stroke-linejoin="round"/>
<path d="M433.212 368.862L393.064 380.462L375.336 376.573L384.317 363.681H411.55L419.172 372.918" fill="#FD8753"/>
<path d="M433.212 368.862L393.064 380.462L375.336 376.573L384.317 363.681H411.55L419.172 372.918" stroke="#3A3836" stroke-width="2" stroke-linecap="round" stroke-linejoin="round"/>
<path d="M313.393 214.667H264.008V247.962H313.393V214.667Z" fill="url(#paint0_linear_18_330)" stroke="#3A3836" stroke-width="2" stroke-linecap="round" stroke-linejoin="round"/>
<path d="M348.214 163.577V181.305C348.214 182.154 348.382 182.995 348.706 183.779C349.031 184.563 349.507 185.275 350.107 185.875C350.707 186.475 351.42 186.952 352.204 187.276C352.988 187.601 353.828 187.768 354.677 187.768H388.462L392.062 199.468H396.519V163.577C396.519 161.863 395.838 160.219 394.626 159.007C393.414 157.795 391.77 157.114 390.056 157.114H354.677C353.828 157.114 352.988 157.281 352.204 157.606C351.42 157.931 350.707 158.407 350.107 159.007C349.507 159.607 349.031 160.32 348.706 161.104C348.382 161.888 348.214 162.728 348.214 163.577Z" fill="#3A3836"/>
<path d="M343.757 164.658V182.375C343.757 183.224 343.924 184.064 344.249 184.848C344.574 185.632 345.05 186.345 345.65 186.945C346.25 187.545 346.963 188.021 347.747 188.346C348.531 188.671 349.371 188.838 350.22 188.838H384.005L392.061 198.354V164.658C392.061 162.944 391.38 161.3 390.168 160.088C388.956 158.876 387.313 158.195 385.599 158.195H350.22C349.371 158.194 348.53 158.36 347.745 158.684C346.96 159.008 346.247 159.484 345.647 160.085C345.046 160.685 344.57 161.398 344.246 162.183C343.922 162.968 343.756 163.809 343.757 164.658Z" fill="white" stroke="#3A3836" stroke-width="2" stroke-linecap="round" stroke-linejoin="round"/>
<path d="M353.585 168.569H380.317" stroke="#3A3836" stroke-width="2" stroke-linecap="round" stroke-linejoin="round"/>
<path d="M353.585 176.369H369.174" stroke="#3A3836" stroke-width="2" stroke-linecap="round" stroke-linejoin="round"/>
<path d="M316.435 263.373L375.336 253.756" stroke="#3A3836" stroke-width="2" stroke-linecap="round" stroke-linejoin="round"/>
<path d="M413.523 251.316H421.612" stroke="#3A3836" stroke-width="2" stroke-linecap="round" stroke-linejoin="round"/>
<path d="M388.273 248.497L382.779 253.99L387.883 259.094" stroke="#3A3836" stroke-width="2" stroke-linecap="round" stroke-linejoin="round"/>
<path d="M399.36 259.094L404.853 253.6L399.75 248.497" stroke="#3A3836" stroke-width="2" stroke-linecap="round" stroke-linejoin="round"/>
<path d="M394.847 248.764L392.786 258.826" stroke="#3A3836" stroke-width="2" stroke-linecap="round" stroke-linejoin="round"/>
<path d="M406.246 321.605L383.559 297.882L337.395 305.37L345.016 314.775L394.435 324.335L406.246 321.605Z" fill="#D1DAFA" stroke="#3A3836" stroke-width="2" stroke-linecap="round" stroke-linejoin="round"/>
<path d="M337.395 305.37V312.256" stroke="#3A3836" stroke-width="2" stroke-linecap="round" stroke-linejoin="round"/>
<path d="M423.295 317.649C412.464 306.117 396.942 311.877 396.942 311.877L406.246 320.413L423.295 317.649Z" stroke="#3A3836" stroke-width="2" stroke-linecap="round" stroke-linejoin="round"/>
<path d="M442.672 377.631L466.061 371.38" stroke="#3A3836" stroke-width="2" stroke-linecap="round" stroke-linejoin="round"/>
<path d="M452.01 385.465L466.061 381.409" stroke="#3A3836" stroke-width="2" stroke-linecap="round" stroke-linejoin="round"/>
<path d="M453.124 394.379L467.175 390.323" stroke="#3A3836" stroke-width="2" stroke-linecap="round" stroke-linejoin="round"/>
<path d="M453.124 404.408L467.175 400.352" stroke="#3A3836" stroke-width="2" stroke-linecap="round" stroke-linejoin="round"/>
<path d="M304.924 226.523C306.77 226.523 308.267 225.026 308.267 223.18C308.267 221.334 306.77 219.837 304.924 219.837C303.078 219.837 301.581 221.334 301.581 223.18C301.581 225.026 303.078 226.523 304.924 226.523Z" fill="white" stroke="#3A3836" stroke-width="2"/>
<path d="M277.736 234.379V247.973" stroke="#3A3836" stroke-width="2" stroke-linecap="round" stroke-linejoin="round"/>
<path d="M284.566 234.379V247.973" stroke="#3A3836" stroke-width="2" stroke-linecap="round" stroke-linejoin="round"/>
<path d="M270.905 234.379V247.973" stroke="#3A3836" stroke-width="2" stroke-linecap="round" stroke-linejoin="round"/>
<path d="M437.079 245.41C438.666 245.41 439.953 244.123 439.953 242.535C439.953 240.948 438.666 239.661 437.079 239.661C435.491 239.661 434.204 240.948 434.204 242.535C434.204 244.123 435.491 245.41 437.079 245.41Z" fill="#3A3836"/>
<path d="M437.079 264.353C438.666 264.353 439.953 263.066 439.953 261.478C439.953 259.891 438.666 258.603 437.079 258.603C435.491 258.603 434.204 259.891 434.204 261.478C434.204 263.066 435.491 264.353 437.079 264.353Z" fill="#3A3836"/>
<path d="M446.974 245.41C448.561 245.41 449.848 244.123 449.848 242.535C449.848 240.948 448.561 239.661 446.974 239.661C445.386 239.661 444.099 240.948 444.099 242.535C444.099 244.123 445.386 245.41 446.974 245.41Z" fill="#3A3836"/>
<path d="M437.079 243.338V260.999" stroke="#3A3836" stroke-width="2" stroke-linecap="round" stroke-linejoin="round"/>
<path d="M437.079 253.545H440.956C442.552 253.545 444.083 252.911 445.211 251.782C446.34 250.654 446.973 249.123 446.973 247.527V244.463" stroke="#3A3836" stroke-width="2" stroke-linecap="round" stroke-linejoin="round"/>
<path d="M390.368 237.677L395.048 227.337C395.601 226.119 396.522 225.106 397.682 224.441C398.841 223.775 400.18 223.49 401.511 223.626L529.464 236.763C530.479 236.867 531.455 237.212 532.308 237.771C533.162 238.329 533.869 239.085 534.371 239.974C534.872 240.863 535.152 241.859 535.188 242.878C535.225 243.898 535.015 244.912 534.579 245.834L483.321 354.399L431.229 344.203" stroke="#3A3836" stroke-width="2" stroke-linecap="round" stroke-linejoin="round"/>
<path d="M482.341 381.086L491.032 381.242C495.401 381.604 499.773 380.59 503.536 378.342C507.299 376.094 510.263 372.725 512.014 368.706L554.001 276.555C555.724 272.613 556.157 268.228 555.238 264.025C554.32 259.823 552.097 256.018 548.886 253.155L532.773 238.089" stroke="#3A3836" stroke-width="2" stroke-linecap="round" stroke-linejoin="round"/>
<path d="M241.332 166.742C232.413 164.802 223.288 163.979 214.166 164.29C191.98 164.97 182.498 173.316 178.62 178.943C176.748 181.651 176.325 187.2 176.625 190.476C177.595 200.772 178.308 225.387 223.793 225.019" stroke="#3A3836" stroke-width="2" stroke-linecap="round" stroke-linejoin="round"/>
<g opacity="0.7">
<path opacity="0.7" d="M198.766 113.089C199.885 114.208 201.31 114.971 202.863 115.28C204.415 115.59 206.024 115.431 207.486 114.826C208.948 114.221 210.198 113.195 211.078 111.879C211.957 110.564 212.426 109.017 212.426 107.434C212.426 105.851 211.957 104.304 211.078 102.988C210.198 101.673 208.948 100.647 207.486 100.042C206.024 99.4364 204.415 99.2783 202.863 99.5875C201.31 99.8968 199.885 100.659 198.766 101.779C198.023 102.521 197.433 103.402 197.03 104.373C196.628 105.343 196.421 106.383 196.421 107.434C196.421 108.484 196.628 109.525 197.03 110.495C197.433 111.465 198.023 112.347 198.766 113.089Z" fill="#FF6C37"/>
</g>
<path d="M198.766 113.089C199.885 114.208 201.31 114.971 202.863 115.28C204.415 115.59 206.024 115.431 207.486 114.826C208.948 114.221 210.198 113.195 211.078 111.879C211.957 110.564 212.426 109.017 212.426 107.434C212.426 105.851 211.957 104.304 211.078 102.988C210.198 101.673 208.948 100.647 207.486 100.042C206.024 99.4364 204.415 99.2783 202.863 99.5875C201.31 99.8968 199.885 100.659 198.766 101.779C198.023 102.521 197.433 103.402 197.03 104.373C196.628 105.343 196.421 106.383 196.421 107.434C196.421 108.484 196.628 109.525 197.03 110.495C197.433 111.465 198.023 112.347 198.766 113.089Z" fill="#FD8753" stroke="#3A3836" stroke-width="2" stroke-miterlimit="10"/>
<path d="M202.867 115.329L201.106 122.337" stroke="#3A3836" stroke-width="2" stroke-linecap="round" stroke-linejoin="round"/>
<path d="M153.103 185.885C154.773 185.885 156.406 185.39 157.795 184.462C159.184 183.534 160.267 182.214 160.906 180.671C161.546 179.128 161.713 177.429 161.387 175.791C161.061 174.153 160.257 172.648 159.075 171.466C157.894 170.285 156.389 169.481 154.751 169.155C153.112 168.829 151.414 168.996 149.871 169.635C148.327 170.275 147.008 171.357 146.08 172.746C145.152 174.135 144.657 175.768 144.657 177.439C144.657 179.679 145.546 181.827 147.13 183.411C148.714 184.995 150.863 185.885 153.103 185.885Z" stroke="#3A3836" stroke-width="2" stroke-linecap="round" stroke-linejoin="round"/>
<path d="M298.083 291.787L307.019 288.99" stroke="#3A3836" stroke-width="2" stroke-linecap="round" stroke-linejoin="round"/>
<path d="M302.551 290.817L308.568 307.476" stroke="#3A3836" stroke-width="2" stroke-linecap="round" stroke-linejoin="round"/>
<path d="M209.731 242.847H200.237C199.683 242.847 199.234 243.296 199.234 243.85V253.667C199.234 254.221 199.683 254.67 200.237 254.67H209.731C210.285 254.67 210.734 254.221 210.734 253.667V243.85C210.734 243.296 210.285 242.847 209.731 242.847Z" stroke="#3A3836" stroke-width="2" stroke-linecap="round" stroke-linejoin="round"/>
<path d="M437.758 226.1L441.079 216.272L509.496 223.035L505.975 232.785" stroke="#3A3836" stroke-width="2" stroke-linecap="round" stroke-linejoin="round"/>
<path d="M423.295 371.726L432.8 368.216C432.8 368.216 431.686 360.07 425.847 363.034L423.295 371.726Z" fill="#3A3836"/>
<path d="M459.32 200.248C472.588 200.248 483.344 189.492 483.344 176.224C483.344 162.956 472.588 152.2 459.32 152.2C446.052 152.2 435.296 162.956 435.296 176.224C435.296 189.492 446.052 200.248 459.32 200.248Z" fill="#3A3836"/>
<path d="M454.863 199.134C468.131 199.134 478.887 188.378 478.887 175.11C478.887 161.842 468.131 151.086 454.863 151.086C441.595 151.086 430.839 161.842 430.839 175.11C430.839 188.378 441.595 199.134 454.863 199.134Z" fill="white" stroke="#3A3836" stroke-width="2" stroke-linecap="round" stroke-linejoin="round"/>
<path d="M446.951 169.449V162.574C446.957 162.017 447.18 161.483 447.574 161.088C447.967 160.692 448.499 160.466 449.057 160.457C449.344 160.445 449.63 160.491 449.898 160.592C450.167 160.692 450.412 160.846 450.62 161.044C450.828 161.241 450.994 161.478 451.108 161.741C451.223 162.004 451.283 162.288 451.286 162.574V169.449" fill="#3A3836"/>
<path d="M458.094 169.449V162.574C458.1 162.017 458.323 161.483 458.717 161.088C459.11 160.692 459.642 160.466 460.2 160.457C460.487 160.445 460.772 160.491 461.041 160.592C461.309 160.692 461.555 160.846 461.763 161.044C461.971 161.241 462.137 161.478 462.251 161.741C462.365 162.004 462.426 162.288 462.429 162.574V169.449" fill="#3A3836"/>
<path d="M444.076 169.449H465.649V176.893C465.649 179.754 464.512 182.497 462.49 184.52C460.467 186.543 457.723 187.679 454.863 187.679C452.002 187.679 449.258 186.543 447.236 184.52C445.213 182.497 444.076 179.754 444.076 176.893V169.449Z" fill="white" stroke="#3A3836" stroke-width="2" stroke-linecap="round" stroke-linejoin="round"/>
<path d="M513.474 234.669L509.496 223.024" stroke="#3A3836" stroke-width="2" stroke-linecap="round" stroke-linejoin="round"/>
<path d="M308.1 135.843L315.9 138.383L308.1 140.924L305.559 148.724L303.019 140.924L295.219 138.383L303.019 135.843L305.559 128.043L308.1 135.843Z" fill="white" stroke="#3A3836" stroke-width="2" stroke-miterlimit="10"/>
<path d="M449.514 93.9899L457.314 96.5305L449.514 99.0711L446.973 106.871L444.422 99.0711L436.622 96.5305L444.422 93.9899L446.973 86.1899L449.514 93.9899Z" fill="white" stroke="#3A3836" stroke-width="2" stroke-miterlimit="10"/>
<path d="M520.249 186.219L523.971 187.423L520.249 188.637L519.045 192.359L517.831 188.637L514.109 187.423L517.831 186.219L519.045 182.498L520.249 186.219Z" fill="#75716F"/>
<mask id="mask0_18_330" style="mask-type:luminance" maskUnits="userSpaceOnUse" x="38" y="31" width="151" height="66">
<path d="M184.864 31.1933L38.9642 39.3503L42.1514 96.3573L188.051 88.2003L184.864 31.1933Z" fill="white"/>
</mask>
<g mask="url(#mask0_18_330)">
<path d="M187.367 87.4714C187.095 82.4572 185.762 77.558 183.456 73.0971C181.324 68.9202 178.202 65.3281 174.363 62.6339C170.824 60.1563 166.637 58.7696 162.318 58.6448C158.055 58.5678 153.869 59.7795 150.306 62.1214C147.616 54.599 142.905 47.9637 136.689 42.9445C131.04 38.3871 124.013 35.8774 116.755 35.8242C109.567 35.9153 102.633 38.4945 97.1322 43.1228C91.1243 48.2079 86.6811 54.892 84.318 62.3999C80.2384 59.1601 75.2376 57.2956 70.0328 57.0736C64.9042 56.9518 59.8762 58.5091 55.7142 61.5085C51.2117 64.7845 47.6931 69.2319 45.5408 74.3674C43.1831 79.8992 42.1455 85.9039 42.51 91.9062L187.367 87.4714Z" fill="#FFDE83"/>
</g>
<path d="M479.934 405.778H551.672" stroke="#3A3836" stroke-width="2"/>
<path d="M558.558 405.778H574.314" stroke="#3A3836" stroke-width="2"/>
<path d="M261.378 405.723H226.401" stroke="#3A3836" stroke-width="2"/>
<path d="M118.794 401.901H75.3814" stroke="#3A3836" stroke-width="2"/>
<path d="M79.092 401.901L82.602 357.106" stroke="#3A3836" stroke-width="2"/>
<path d="M80.8525 385.131L104.698 370.255L106.927 359.034" stroke="#3A3836" stroke-width="2"/>
<path d="M83.7163 349.819L84.162 342.231" stroke="#3A3836" stroke-width="2"/>
<defs>
<linearGradient id="paint0_linear_18_330" x1="292.288" y1="210.957" x2="285.101" y2="251.695" gradientUnits="userSpaceOnUse">
<stop stop-color="#FF6D37"/>
<stop offset="0.54" stop-color="#FA9139"/>
<stop offset="1" stop-color="#F7AC3B"/>
</linearGradient>
</defs>
</svg>
