<svg width="30" height="30" viewBox="0 0 30 30" fill="none" xmlns="http://www.w3.org/2000/svg">
<path fill-rule="evenodd" clip-rule="evenodd" d="M15 30C23.2843 30 30 23.2843 30 15C30 6.71573 23.2843 0 15 0C6.71573 0 0 6.71573 0 15C0 23.2843 6.71573 30 15 30ZM21.5459 8L16.3335 13.9287L22 22H17.8309L14.0137 16.5636L9.235 22H8L13.466 15.7834L8 8H12.1691L15.7829 13.1467L20.3109 8H21.5459ZM14.0868 15.0762L14.6414 15.8517L18.4131 21.1334H20.3103L15.6871 14.6639L15.1347 13.8884L11.5776 8.91103H9.68037L14.0868 15.0762Z" fill="white"/>
</svg>
