<svg width="183" height="118" viewBox="0 0 183 118" fill="none" xmlns="http://www.w3.org/2000/svg">
<path d="M110.5 77L110.759 74.5135L110.5 77ZM110.5 54.5L109.338 56.7135L110.5 54.5ZM0 5.5L18.3084 27.819L28.483 0.803949L0 5.5ZM73.9009 102.303C72.5599 97.684 72.764 91.1961 77.3031 86.3303C81.8456 81.4608 91.3697 77.5208 110.241 79.4866L110.759 74.5135C91.2303 72.4792 79.7544 76.3725 73.6469 82.9197C67.536 89.4705 67.4401 97.9827 69.0991 103.697L73.9009 102.303ZM110.241 79.4866C133.623 81.9222 149.699 93.1121 156.297 102.104C157.941 104.344 158.921 106.345 159.334 107.947C159.754 109.573 159.525 110.49 159.233 110.945C158.979 111.34 158.343 111.902 156.631 112.037C154.889 112.174 152.322 111.825 148.803 110.632L147.197 115.368C151.053 116.675 154.345 117.232 157.023 117.022C159.731 116.809 162.076 115.77 163.439 113.649C164.764 111.588 164.789 109.075 164.176 106.698C163.556 104.295 162.216 101.718 160.328 99.146C152.801 88.8879 135.377 77.0778 110.759 74.5135L110.241 79.4866ZM148.803 110.632C141.987 108.322 135.583 103.323 130.645 97.0411C125.708 90.7589 122.385 83.3803 121.544 76.5088C120.707 69.6705 122.329 63.5383 126.989 59.2156C131.706 54.8402 139.992 51.8885 153.386 52.4974L153.614 47.5026C139.508 46.8614 129.669 49.9098 123.589 55.55C117.452 61.2429 115.605 69.1419 116.581 77.1161C117.553 85.0572 121.324 93.2723 126.714 100.131C132.105 106.99 139.263 112.678 147.197 115.368L148.803 110.632ZM153.386 52.4974C160.141 52.8044 165.375 53.5842 169.261 54.6189C173.199 55.6674 175.538 56.922 176.722 58.0204C177.804 59.0238 177.682 59.5947 177.555 59.9217C177.303 60.5684 176.369 61.6551 174.063 62.7367C169.567 64.8462 161.422 66.1736 150.544 64.9531C139.734 63.7401 126.407 60.0274 111.662 52.2865L109.338 56.7135C124.593 64.7226 138.516 68.6349 149.987 69.9219C161.391 71.2014 170.558 69.9038 176.187 67.2633C178.944 65.9698 181.275 64.1504 182.215 61.7345C183.279 58.999 182.275 56.3511 180.122 54.3546C178.072 52.453 174.825 50.9263 170.548 49.7873C166.218 48.6345 160.609 47.8205 153.614 47.5026L153.386 52.4974ZM111.662 52.2865C77.3739 34.2852 44.282 19.9688 21.9756 11.1056L20.1294 15.7523C42.3142 24.5671 75.2401 38.8122 109.338 56.7135L111.662 52.2865Z" fill="#FF6C37"/>
</svg>
