<svg width="32" height="33" viewBox="0 0 32 33" fill="none" xmlns="http://www.w3.org/2000/svg">
<path d="M0 16.2001C0 25.0366 7.16344 32.2001 16 32.2001C24.8366 32.2001 32 25.0366 32 16.2001C32 7.36352 24.8366 0.200073 16 0.200073C7.16344 0.200073 0 7.36352 0 16.2001Z" fill="#25D366"/>
<path fill-rule="evenodd" clip-rule="evenodd" d="M21.6 10.5001C20.1 9.00007 18.1 8.20007 16 8.20007C11.6 8.20007 8 11.8001 8 16.2001C8 17.6001 8.40001 19.0001 9.10001 20.2001L8 24.2001L12.2 23.1001C13.4 23.7001 14.7 24.1001 16 24.1001C20.4 24.1001 24 20.5001 24 16.1001C24 14.0001 23.1 12.0001 21.6 10.5001ZM16 22.8001C14.8 22.8001 13.6 22.5001 12.6 21.9001L12.4 21.8001L9.89999 22.5001L10.6 20.1001L10.4 19.8001C9.69999 18.7001 9.39999 17.5001 9.39999 16.3001C9.39999 12.7001 12.4 9.70007 16 9.70007C17.8 9.70007 19.4 10.4001 20.7 11.6001C22 12.9001 22.6 14.5001 22.6 16.3001C22.6 19.8001 19.7 22.8001 16 22.8001ZM19.6 17.8001C19.4 17.7001 18.4 17.2001 18.2 17.2001C18 17.1001 17.9 17.1001 17.8 17.3001C17.7 17.5001 17.3 17.9001 17.2 18.1001C17.1 18.2001 17 18.2001 16.8 18.2001C16.6 18.1001 16 17.9001 15.2 17.2001C14.6 16.7001 14.2 16.0001 14.1 15.8001C14 15.6001 14.1 15.5001 14.2 15.4001C14.3 15.3001 14.4 15.2001 14.5 15.1001C14.6 15.0001 14.6 14.9001 14.7 14.8001C14.8 14.7001 14.7 14.6001 14.7 14.5001C14.7 14.4001 14.3 13.4001 14.1 13.0001C14 12.7001 13.8 12.7001 13.7 12.7001C13.6 12.7001 13.5 12.7001 13.3 12.7001C13.2 12.7001 13 12.7001 12.8 12.9001C12.6 13.1001 12.1 13.6001 12.1 14.6001C12.1 15.6001 12.8 16.5001 12.9 16.7001C13 16.8001 14.3 18.9001 16.3 19.7001C18 20.4001 18.3 20.2001 18.7 20.2001C19.1 20.2001 19.9 19.7001 20 19.3001C20.2 18.8001 20.2 18.4001 20.1 18.4001C20 17.9001 19.8 17.9001 19.6 17.8001Z" fill="white"/>
</svg>
